<?xml version="1.0" encoding="utf-8"?>
<!-- Generator: Adobe Illustrator 27.5.0, SVG Export Plug-In . SVG Version: 6.00 Build 0)  -->
<svg version="1.1" xmlns="http://www.w3.org/2000/svg" xmlns:xlink="http://www.w3.org/1999/xlink" x="0px" y="0px"
	 viewBox="0 0 750 500" style="enable-background:new 0 0 750 500;" xml:space="preserve">
<g id="BACKGROUND">
	<g>
		<g>
			<g>
				<g>
					<g>
						<path style="fill:#E6F6FF;" d="M612.816,170.761c-0.266,4.366-0.505,8.983,0.308,13.29c0.219,1.035,0.406,4.311,1.402,4.953
							c0.999,0.671,3.239-1.281,4.292-1.874c2.892-1.624,6-2.77,8.906-4.419c3.669-2.064,7.755-3.95,11.704-5.382
							c0.387-0.14,0.792-0.277,1.202-0.393c1.465-0.435,3.029-0.7,4.465-0.564c1.9,0.18,3.604,1.058,4.613,3.195
							c1.675,3.487-0.794,9.577-1.999,12.924c-0.102,0.272-0.194,0.547-0.297,0.828c-1.517,4.249-3.11,8.69-2.813,13.216
							c0.132,2.226,1.006,4.336,2.416,6.024c0.765,0.946,1.69,1.753,2.751,2.399c1.019,0.619,2.008,1.061,2.972,1.338
							c2.193,0.654,4.315,0.52,6.505-0.092c1.149-0.319,2.315-0.766,3.526-1.299c0.579-0.253,1.135-0.529,1.677-0.836
							c2.28-1.255,4.273-2.916,6.097-4.772c0.646-0.636,1.259-1.298,1.858-1.981c1.359-1.514,2.64-3.109,3.921-4.658
							c0.96-1.168,1.903-2.397,2.827-3.667c1.323-1.804,2.585-3.687,3.797-5.598c1.371-2.144,2.665-4.322,3.871-6.443
							c1.99-3.541,3.779-7.311,5.502-11.075c0.464-1.003,0.921-2.017,1.376-3.021c-3.548,0.606-7.122,1.008-10.83,1.137
							c-4.289,0.156-9.714-0.67-6.629-6.155c1.719-3.085,5.681-4.911,8.849-6.357c4.615-2.074,9.368-4.129,14.288-5.321
							c0.563-0.124,1.12-0.268,1.665-0.443c0.361-1.005,0.714-2.02,1.04-3.041c1.365-4.289,2.449-8.595,3.367-12.916
							c-3.129,0.302-6.272,1.243-7.993,2.203c-2.601,1.446-6.71,4.772-9.701,3.383c-4.26-1.982-1.174-5.578,1.044-7.752
							c3.063-2.959,7.047-3.997,10.81-5.73c1.331-0.613,2.64-1.164,3.965-1.656c2.469-0.924,4.313-3.021,4.781-5.61v-0.047
							c1-5.636,2.408-12.938,6.725-17.167c0.461-0.465,0.971-0.893,1.51-1.276c2.011-1.422,4.122-2.304,6.392-3.032
							c-1.186-0.114-2.387-0.202-3.594-0.254c-10.348-0.428-21.234,1.605-31.056,4.558c-0.031,0.013-0.071,0.024-0.111,0.035
							c-2.564,0.783-4.398,3.023-4.83,5.666c-0.125,0.768-0.251,1.546-0.418,2.334c-0.655,3.288-1.107,9.108-4.116,11.134
							c-3.538,2.354-5.36-3.948-5.696-6.574c-0.298-2.25,0.449-4.339,0.959-6.475c-4.306,1.993-8.729,3.577-12.982,5.779
							c-4.386,2.299-8.819,4.692-13.099,7.172c-0.039,4.034,0.671,8.15,1.015,12.109c0.588,6.528,3.041,13.976-0.581,20.072
							c-1.915,3.216-4.106,4.734-7.502,2.726c-3.176-1.879-4.295-4.935-4.791-8.414c-0.736-5.075,0.258-9.683,1.004-14.662
							c0.262-1.742,0.657-3.438,1.095-5.117c-1.796,0.813-3.575,1.686-5.348,2.579c-3.939,2-9.22,3.101-12.372,6.269
							c-2.265,2.268-3.658,6.371-4.662,9.372C613.727,157.799,613.238,164.046,612.816,170.761z"/>
					</g>
					<g>
						<path style="fill:#BBE3FF;" d="M619.072,222.768l-0.009,0.045c-0.429,2.152,2.844,2.738,3.409,0.708
							c0.02-0.053,0.029-0.098,0.04-0.153c0.856-4.249,2.255-8.474,3.982-12.643c1.8-4.343,3.964-8.615,6.241-12.797
							c2.759-5.078,5.695-10.007,8.347-14.738c1.299-2.3,2.63-4.575,4.012-6.82c5.703-9.335,12.103-18.191,19.183-26.572
							c8.753-10.38,17.965-20.743,28.767-29.034c4.125-3.172,8.684-5.625,13.069-8.396c2.895-1.831,5.765-3.723,8.962-4.984
							c0.461-0.465,0.971-0.893,1.51-1.276c2.011-1.422,4.122-2.304,6.392-3.032c-1.186-0.114-2.387-0.202-3.594-0.254
							c-3.557,0.698-6.823,1.832-8.419,2.638c-13.103,6.576-24.806,15.651-35.01,26.11c-12.45,12.778-23.854,26.746-33.219,41.951
							c-0.687,1.128-1.395,2.262-2.106,3.414c-3.751,6.079-7.711,12.542-11.251,19.22c-1.17,2.174-2.28,4.38-3.326,6.598
							C622.938,209.337,620.418,216.058,619.072,222.768z"/>
					</g>
				</g>
				<path style="fill:#97C2FF;" d="M617.161,212.659c3.253-5.014,8.793,1.625,10.121,5.003c2.581,6.581,3.012,21.462,2.248,25.547
					c0.957-1.09,1.95-2.153,2.98-3.198c1.906-1.928,3.809-3.863,5.704-5.802c-2.355-3.481-7.745-10.638-6.591-23.379
					c0.195-2.138,0.645-4.966,2.782-6.021c2.972-1.464,3.582,1.977,3.909,4.165c0.558,3.744,1.589,16.695,2.402,22.691
					c3.811-3.87,7.618-7.749,11.444-11.599c-3.214-7.466-7.067-16.551-4.479-24.791c1.696-5.393,6.219-1.556,7.493,1.74
					c2.281,5.905,1.892,13.167,0.411,19.617c1.81-1.806,3.624-3.603,5.443-5.391c0.328-0.324,0.655-0.641,0.983-0.965
					c-1.896-3.531-4.095-6.73-4.697-10.836c-0.591-4.052,0.773-7.946,3.047-11.252c1.009-1.458,2.023-3.365,3.928-3.804
					c2.666-0.618,1.855,2.406,1.538,4.223c-0.666,3.869-1.123,7.856-1.364,11.759c-0.126,2.153-0.318,4.169-0.636,6.239
					c-0.083,0.533-0.084,1.266-0.089,2.013c2.617-2.515,5.299-4.986,8.029-7.399c-0.94-6.807-2.02-15.045,1.927-21.167
					c2.599-4.009,5.42,0.129,5.721,3.108c0.462,4.614-0.939,9.607-3.051,14.069c1.205-1.025,2.424-2.046,3.645-3.051
					c1.4-7.928,3.004-17.774,9.653-23.143c4.226-3.418,5.837,2.172,5.119,5.545c-0.713,3.31-2.29,6.504-4.33,9.442
					c0.572-0.428,1.151-0.854,1.727-1.273c1.383-1.012,2.795-1.957,4.223-2.86c0.267-6.88,0.615-15.245,5.605-20.605
					c3.258-3.501,5.315,1.076,5.09,4.062c-0.359,4.73-2.72,9.519-5.668,13.599c2.255-1.243,4.549-2.4,6.867-3.521
					c1.075-5.519,2.422-12.185,7.104-15.872c3.08-2.418,4.165,1.538,3.609,3.924c-0.812,3.46-2.978,6.75-5.563,9.529
					c2.557-1.19,5.118-2.364,7.671-3.585c1.31-2.176,2.87-4.359,4.257-6.226c1.647-2.206,3.817-4.413,6.781-4.485
					c3.903-0.1,4.962,2.547,3.126,5.804c-0.836,1.484-2.054,2.549-3.47,3.369c1.534,0.111,2.99,0.531,4.018,1.294
					c1.037,0.781,1.409,1.618,1.317,2.41c-0.138,1.343-1.59,2.551-3.29,3.077c-3.005,0.931-6.299,0.121-9.349-0.131
					c-0.949-0.077-1.905-0.04-2.867,0.038c-1.318,0.103-2.642,0.269-3.935,0.293c-1.688,0.784-3.375,1.569-5.059,2.361
					c-0.002,0.001-0.004,0.002-0.006,0.003c4.542-0.792,9.624-0.802,13.649,1.016c2.233,1.008,4.713,4.282,0.92,5.249
					c-6.087,1.551-12.539-1.85-17.718-4.418l-0.088-0.295c-0.764,0.373-1.53,0.753-2.299,1.139
					c-0.043,0.022-0.085,0.038-0.119,0.056c-3.898,1.976-7.717,4.115-11.388,6.613c-0.003,0.003-0.007,0.005-0.01,0.008
					c1.583-0.178,3.153-0.19,4.671,0.019c2.762,0.38,6.524,3.152,2.696,5.43c-4.919,2.928-11.117,2.464-16.72,1.582
					c-4.553,3.608-9.016,7.368-13.344,11.25c4.935-2.372,10.672-4.01,15.842-3.298c2.961,0.407,6.995,3.38,2.891,5.822
					c-6.584,3.919-15.307,2.172-22.255,0.959l-0.109-0.167c0,0,0,0,0,0c-2.006,1.852-3.979,3.736-5.921,5.638
					c-0.953,0.938-1.905,1.877-2.844,2.82c-0.002,0.002-0.004,0.005-0.007,0.007c6.74-3.43,14.528-5.926,21.428-5.248
					c3.939,0.387,9.177,4.126,3.562,7.586c-8.978,5.533-20.499,3.702-29.711,2.453c-0.002,0.002-0.004,0.004-0.005,0.005
					c-2.655,2.705-5.288,5.432-7.932,8.147c6.938-1.016,21.177-3.972,25.852-4.546c2.188-0.267,7.382-0.316,6.54,3.346
					c-0.468,2.029-4.247,4.125-6.104,4.789c-4.139,1.484-19.919,1.76-30.391,0.591c-0.002,0.002-0.003,0.003-0.005,0.005
					c-1.889,1.918-3.796,3.824-5.73,5.699c-0.714,0.694-1.411,1.4-2.094,2.111c10.134-2.402,30.222-5.765,35.265-4.701
					c2.565,0.541,6.62,2.079,6.355,5.302c-0.275,3.337-5.298,3.701-7.805,4.511c-5.776,1.868-24.846,0.76-28.34,0.048
					c-2.708-0.551-5.402-1.71-8.032-2.396c-0.025,0.032-0.054,0.063-0.078,0.096c-1.473,1.659-2.877,3.354-4.231,5.073
					c0.162,0.015,0.331,0.033,0.5,0.05c8.501,0.74,26.648,1.204,32.452,1.84c2.694,0.299,8.923,1.695,6.889,5.848
					c-1.129,2.291-6.246,3.74-8.657,4.011c-5.006,0.577-21.855-2.96-34.002-6.96c-0.224-0.072-0.44-0.147-0.656-0.223
					c-4.219,5.744-8.146,11.69-12.547,17.595c-1.325,1.786-4.226-0.119-2.893-1.909c6.355-8.528,11.593-17.449,18.444-25.456
					C620.604,234.774,615.69,214.928,617.161,212.659z"/>
				<g>
					<g>
						<path style="fill:#E6F6FF;" d="M579.129,285.78c0.741,1.111,3.871,0.065,5.204-0.093c3.658-0.426,7.343-0.268,11.019-0.722
							c4.639-0.546,9.63-0.732,14.297-0.509c0.463,0.018,0.935,0.056,1.407,0.111c1.685,0.176,3.398,0.565,4.815,1.324
							c1.87,1,3.232,2.63,3.361,5.25c0.222,4.287-4.917,9.473-7.575,12.39c-3.565,3.936-7.454,7.992-9.195,13.066
							c-1.269,3.63-0.593,7.686,1.695,10.844c3.445,4.741,7.815,5.612,13.353,5.5c6.945-0.12,13.149-3.593,19.131-6.76
							c5.991-3.176,12.094-7.454,17.464-11.612c4.51-3.519,8.834-7.556,13.075-11.51c-3.889-0.889-7.732-2.009-11.584-3.454
							c-4.463-1.676-9.667-4.843-4.167-9.149c3.084-2.435,7.917-2.602,11.788-2.732c5.621-0.157,11.371-0.222,16.918,0.657
							c0.63,0.111,1.269,0.204,1.898,0.25c0.806-0.87,1.593-1.759,2.371-2.667c3.232-3.815,6.176-7.76,8.964-11.797
							c-3.334-1.037-6.954-1.408-9.13-1.158c-3.278,0.37-8.917,2.019-11.39-0.685c-3.519-3.852,1.185-6.223,4.389-7.501
							c4.398-1.722,8.927-1.083,13.529-1.25c1.621-0.055,3.204-0.065,4.769-0.009c2.926,0.111,5.713-1.241,7.297-3.704l0.028-0.037
							c3.435-5.352,8.001-12.251,14.233-14.742c0.676-0.269,1.371-0.491,2.084-0.648c2.676-0.602,5.213-0.602,7.852-0.38
							c-1.176-0.63-2.38-1.232-3.602-1.796c-0.009,0-0.009,0-0.009,0c-10.418-4.862-22.428-7.427-33.744-8.594
							c-0.046,0-0.083-0.009-0.13-0.009c-2.963-0.305-5.806,1.213-7.371,3.741c-0.454,0.732-0.926,1.472-1.426,2.213
							c-2.083,3.093-5.028,8.862-8.982,9.649c-1.935,0.38-2.917-0.667-3.343-2.222c-0.602-2.158-0.139-5.297,0.315-6.954
							c0.333-1.222,0.917-2.296,1.602-3.315c0.676-0.991,1.445-1.935,2.148-2.908c-0.657,0.028-1.306,0.046-1.963,0.055h-0.009
							c-4.593,0.092-9.167-0.065-13.807,0.324c-0.787,0.065-1.574,0.139-2.371,0.213c-4.204,0.38-8.445,0.815-12.622,1.343
							c-0.5,0.056-1,0.12-1.491,0.185c-0.296,0.695-0.574,1.398-0.824,2.111c-0.361,0.963-0.685,1.945-0.991,2.926
							c-0.472,1.5-0.898,3.01-1.333,4.51c-0.324,1.121-0.648,2.223-0.991,3.306c-0.12,0.38-0.241,0.778-0.352,1.167
							c-0.611,2.139-1.12,4.408-1.732,6.658c-1.306,4.797-3.028,9.473-7.102,12.501c-3.334,2.472-6.223,3.093-8.843-0.426
							c-0.546-0.732-0.972-1.481-1.278-2.25c-0.676-1.685-0.815-3.445-0.63-5.25c0.102-1.037,0.306-2.093,0.583-3.167
							c1.417-5.51,4.408-9.816,7.306-14.594c0.593-0.982,1.222-1.926,1.88-2.843c0.463-0.658,0.945-1.296,1.426-1.936
							c-0.833,0.028-1.667,0.065-2.509,0.111c-1.352,0.065-2.713,0.148-4.075,0.25c-0.926,0.065-1.889,0.083-2.871,0.074
							c-1.139-0.009-2.306-0.046-3.482-0.074c-3.139-0.056-6.306,0.009-9.01,1.13c-3.296,1.361-6.473,4.973-8.788,7.612
							c-4.954,5.658-8.13,11.844-11.427,18.548c-2.148,4.371-4.362,8.991-5.371,13.751
							C579.592,281.252,578.398,284.687,579.129,285.78z"/>
					</g>
					<g>
						<path style="fill:#BBE3FF;" d="M572.629,324.413c8.908-13.233,23.798-23.539,36.216-33.234
							c2.315-1.806,4.658-3.565,7.028-5.288c9.834-7.13,20.178-13.473,31.012-19.039c3.658-1.88,7.352-3.741,11.084-5.538
							c3.704-1.787,7.454-3.5,11.242-5.093c6.39-2.695,12.909-5.056,19.576-6.834c5.584-1.482,11.307-2.046,16.992-3.019
							c3.75-0.639,7.501-1.343,11.316-1.287c0.676-0.269,1.371-0.491,2.084-0.648c2.676-0.602,5.213-0.602,7.852-0.38
							c-1.176-0.63-2.38-1.232-3.602-1.796c-0.009,0-0.009,0-0.009,0c-3.936-0.806-7.751-1.037-9.723-0.898
							c-16.029,1.13-31.706,5.334-46.458,11.557c-0.195,0.083-0.398,0.167-0.593,0.25c-5.343,2.278-10.64,4.704-15.853,7.279
							c-12.584,6.214-24.743,13.334-36.123,21.52c-1.185,0.852-2.389,1.722-3.612,2.602c-14.825,10.64-31.678,22.891-41.726,37.809
							C567.934,324.45,571.24,326.487,572.629,324.413z"/>
					</g>
				</g>
			</g>
		</g>
	</g>
	<g>
		<g>
			<g>
				<g>
					<g>
						<path style="fill:#E6F6FF;" d="M146.915,189.271c-0.593,4.334-1.259,8.908-2.898,12.973c-0.417,0.972-1.241,4.148-2.343,4.584
							c-1.111,0.463-2.926-1.889-3.843-2.676c-2.519-2.158-5.343-3.889-7.871-6.075c-3.195-2.741-6.834-5.389-10.427-7.565
							c-0.352-0.213-0.722-0.426-1.102-0.62c-1.352-0.713-2.834-1.278-4.269-1.426c-1.898-0.195-3.741,0.333-5.148,2.232
							c-2.324,3.093-1.093,9.547-0.565,13.066c0.046,0.287,0.083,0.574,0.13,0.87c0.658,4.463,1.352,9.13,0.176,13.51
							c-0.565,2.158-1.833,4.056-3.547,5.436c-0.935,0.778-2,1.389-3.167,1.815c-1.121,0.408-2.176,0.648-3.176,0.732
							c-2.278,0.213-4.334-0.334-6.362-1.361c-1.065-0.537-2.121-1.204-3.204-1.963c-0.519-0.361-1.009-0.741-1.482-1.148
							c-1.991-1.676-3.621-3.695-5.047-5.871c-0.509-0.75-0.982-1.519-1.435-2.306c-1.037-1.75-1.982-3.565-2.935-5.334
							c-0.713-1.333-1.398-2.722-2.056-4.148c-0.945-2.028-1.815-4.121-2.63-6.232c-0.926-2.371-1.769-4.76-2.537-7.075
							c-1.259-3.862-2.278-7.908-3.232-11.936c-0.259-1.074-0.509-2.158-0.759-3.232c3.361,1.287,6.788,2.38,10.399,3.232
							c4.176,0.991,9.658,1.241,7.704-4.741c-1.083-3.361-4.611-5.926-7.436-7.964c-4.121-2.936-8.38-5.88-12.973-8.01
							c-0.528-0.232-1.046-0.482-1.546-0.759c-0.157-1.056-0.306-2.121-0.426-3.185c-0.5-4.473-0.722-8.908-0.778-13.325
							c3.01,0.908,5.908,2.445,7.408,3.723c2.269,1.926,5.649,5.991,8.853,5.214c4.565-1.111,2.241-5.241,0.491-7.806
							c-2.426-3.5-6.13-5.297-9.482-7.732c-1.185-0.861-2.361-1.657-3.565-2.398c-2.241-1.389-3.639-3.806-3.593-6.436l0.009-0.046
							c0.12-5.723,0.167-13.159-3.241-18.15c-0.361-0.546-0.778-1.065-1.231-1.546c-1.695-1.787-3.593-3.065-5.677-4.223
							c1.185,0.12,2.38,0.268,3.575,0.454c10.232,1.602,20.511,5.723,29.567,10.538c0.028,0.019,0.065,0.037,0.102,0.055
							c2.361,1.269,3.723,3.825,3.63,6.501c-0.028,0.778-0.056,1.565-0.046,2.371c0,3.352-0.694,9.149,1.861,11.723
							c3.01,3,6.028-2.824,6.871-5.334c0.732-2.148,0.407-4.343,0.324-6.538c3.834,2.796,7.862,5.213,11.603,8.204
							c3.852,3.111,7.732,6.325,11.446,9.593c-0.75,3.963-2.25,7.862-3.361,11.677c-1.852,6.288-5.714,13.113-3.352,19.798
							c1.25,3.528,3.102,5.445,6.825,4.139c3.482-1.223,5.176-4,6.343-7.316c1.713-4.834,1.639-9.547,1.88-14.575
							c0.083-1.759,0.028-3.5-0.074-5.232c1.602,1.148,3.176,2.352,4.741,3.575c3.473,2.732,8.436,4.843,10.908,8.565
							c1.778,2.667,2.343,6.964,2.741,10.103C148.554,176.381,147.814,182.604,146.915,189.271z"/>
					</g>
					<g>
						<path style="fill:#BBE3FF;" d="M130.618,239.053v0.046c0,2.195-3.324,2.13-3.482,0.028c-0.009-0.056-0.009-0.102-0.009-0.158
							c-0.009-4.334-0.556-8.751-1.435-13.177c-0.917-4.611-2.204-9.223-3.621-13.769c-1.713-5.519-3.63-10.927-5.306-16.085
							c-0.824-2.51-1.685-5.001-2.602-7.473c-3.769-10.269-8.315-20.206-13.622-29.808c-6.556-11.89-13.566-23.854-22.539-34.096
							c-3.426-3.917-7.417-7.213-11.177-10.788c-2.482-2.361-4.926-4.778-7.816-6.639c-0.361-0.546-0.778-1.065-1.231-1.546
							c-1.695-1.787-3.593-3.065-5.677-4.223c1.185,0.12,2.38,0.268,3.575,0.454c3.352,1.38,6.334,3.13,7.741,4.232
							c11.566,9.01,21.27,20.196,29.234,32.447c9.714,14.964,18.168,30.891,24.382,47.634c0.454,1.241,0.926,2.491,1.398,3.76
							c2.491,6.695,5.112,13.807,7.278,21.048c0.722,2.361,1.38,4.741,1.972,7.121C129.451,225.126,130.608,232.21,130.618,239.053z
							"/>
					</g>
				</g>
				<path style="fill:#97C2FF;" d="M127.867,212.659c-3.253-5.014-8.793,1.625-10.121,5.003c-2.581,6.581-3.012,21.462-2.248,25.547
					c-0.957-1.09-1.95-2.153-2.98-3.198c-1.906-1.928-3.809-3.863-5.704-5.802c2.355-3.481,7.745-10.638,6.591-23.379
					c-0.195-2.138-0.645-4.966-2.782-6.021c-2.972-1.464-3.583,1.977-3.909,4.165c-0.558,3.744-1.589,16.695-2.402,22.691
					c-3.811-3.87-7.618-7.749-11.444-11.599c3.214-7.466,7.067-16.551,4.479-24.791c-1.696-5.393-6.219-1.556-7.493,1.74
					c-2.281,5.905-1.892,13.167-0.411,19.617c-1.81-1.806-3.624-3.603-5.443-5.391c-0.329-0.324-0.655-0.641-0.983-0.965
					c1.896-3.531,4.095-6.73,4.697-10.836c0.59-4.052-0.773-7.946-3.047-11.252c-1.009-1.458-2.023-3.365-3.928-3.804
					c-2.666-0.618-1.855,2.406-1.538,4.223c0.666,3.869,1.123,7.856,1.364,11.759c0.127,2.153,0.318,4.169,0.636,6.239
					c0.083,0.533,0.084,1.266,0.089,2.013c-2.617-2.515-5.299-4.986-8.029-7.399c0.94-6.807,2.02-15.045-1.927-21.167
					c-2.599-4.009-5.42,0.129-5.721,3.108c-0.462,4.614,0.939,9.607,3.051,14.069c-1.205-1.025-2.424-2.046-3.645-3.051
					c-1.4-7.928-3.004-17.774-9.653-23.143c-4.226-3.418-5.837,2.172-5.119,5.545c0.713,3.31,2.29,6.504,4.329,9.442
					c-0.572-0.428-1.151-0.854-1.727-1.273c-1.383-1.012-2.795-1.957-4.223-2.86c-0.267-6.88-0.615-15.245-5.605-20.605
					c-3.258-3.501-5.315,1.076-5.09,4.062c0.359,4.73,2.72,9.519,5.668,13.599c-2.255-1.243-4.549-2.4-6.867-3.521
					c-1.075-5.519-2.422-12.185-7.104-15.872c-3.08-2.418-4.165,1.538-3.609,3.924c0.812,3.46,2.978,6.75,5.563,9.529
					c-2.558-1.19-5.118-2.364-7.671-3.585c-1.31-2.176-2.87-4.359-4.257-6.226c-1.647-2.206-3.817-4.413-6.781-4.485
					c-3.903-0.1-4.963,2.547-3.126,5.804c0.836,1.484,2.054,2.549,3.47,3.369c-1.534,0.111-2.99,0.531-4.018,1.294
					c-1.037,0.781-1.409,1.618-1.317,2.41c0.138,1.343,1.59,2.551,3.29,3.077c3.005,0.931,6.299,0.121,9.348-0.131
					c0.949-0.077,1.905-0.04,2.867,0.038c1.318,0.103,2.642,0.269,3.935,0.293c1.688,0.784,3.375,1.569,5.059,2.361
					c0.002,0.001,0.004,0.002,0.006,0.003c-4.542-0.792-9.624-0.802-13.649,1.016c-2.233,1.008-4.713,4.282-0.92,5.249
					c6.087,1.551,12.538-1.85,17.718-4.418l0.088-0.295c0.764,0.373,1.53,0.753,2.299,1.139c0.043,0.022,0.084,0.038,0.119,0.056
					c3.898,1.976,7.716,4.115,11.388,6.613c0.004,0.003,0.007,0.005,0.01,0.008c-1.583-0.178-3.153-0.19-4.671,0.019
					c-2.762,0.38-6.524,3.152-2.696,5.43c4.919,2.928,11.117,2.464,16.72,1.582c4.553,3.608,9.016,7.368,13.344,11.25
					c-4.935-2.372-10.672-4.01-15.842-3.298c-2.961,0.407-6.995,3.38-2.891,5.822c6.584,3.919,15.307,2.172,22.255,0.959
					l0.109-0.167c0,0,0.001,0,0.001,0c2.006,1.852,3.979,3.736,5.921,5.638c0.953,0.938,1.905,1.877,2.844,2.82
					c0.002,0.002,0.005,0.005,0.007,0.007c-6.74-3.43-14.528-5.926-21.428-5.248c-3.939,0.387-9.177,4.126-3.562,7.586
					c8.978,5.533,20.499,3.702,29.711,2.453c0.002,0.002,0.004,0.004,0.005,0.005c2.655,2.705,5.288,5.432,7.933,8.147
					c-6.938-1.016-21.177-3.972-25.852-4.546c-2.188-0.267-7.382-0.316-6.54,3.346c0.468,2.029,4.247,4.125,6.104,4.789
					c4.138,1.484,19.919,1.76,30.391,0.591c0.002,0.002,0.003,0.003,0.005,0.005c1.889,1.918,3.796,3.824,5.73,5.699
					c0.714,0.694,1.411,1.4,2.094,2.111c-10.134-2.402-30.222-5.765-35.265-4.701c-2.565,0.541-6.62,2.079-6.355,5.302
					c0.275,3.337,5.298,3.701,7.805,4.511c5.776,1.868,24.846,0.76,28.34,0.048c2.708-0.551,5.402-1.71,8.032-2.396
					c0.025,0.032,0.054,0.063,0.078,0.096c1.473,1.659,2.877,3.354,4.23,5.073c-0.162,0.015-0.331,0.033-0.5,0.05
					c-8.501,0.74-26.648,1.204-32.452,1.84c-2.694,0.299-8.923,1.695-6.889,5.848c1.129,2.291,6.246,3.74,8.657,4.011
					c5.006,0.577,21.855-2.96,34.002-6.96c0.224-0.072,0.44-0.147,0.655-0.223c4.219,5.744,8.146,11.69,12.547,17.595
					c1.325,1.786,4.226-0.119,2.893-1.909c-6.355-8.528-11.593-17.449-18.443-25.456
					C124.424,234.774,129.338,214.928,127.867,212.659z"/>
				<g>
					<g>
						<path style="fill:#E6F6FF;" d="M165.898,285.78c-0.741,1.111-3.871,0.065-5.204-0.093c-3.658-0.426-7.343-0.268-11.02-0.722
							c-4.639-0.546-9.63-0.732-14.298-0.509c-0.463,0.018-0.935,0.056-1.408,0.111c-1.685,0.176-3.398,0.565-4.815,1.324
							c-1.871,1-3.232,2.63-3.361,5.25c-0.222,4.287,4.917,9.473,7.575,12.39c3.565,3.936,7.454,7.992,9.195,13.066
							c1.269,3.63,0.593,7.686-1.695,10.844c-3.445,4.741-7.815,5.612-13.353,5.5c-6.945-0.12-13.149-3.593-19.131-6.76
							c-5.991-3.176-12.094-7.454-17.464-11.612c-4.51-3.519-8.834-7.556-13.075-11.51c3.889-0.889,7.732-2.009,11.584-3.454
							c4.463-1.676,9.668-4.843,4.167-9.149c-3.084-2.435-7.917-2.602-11.788-2.732c-5.621-0.157-11.371-0.222-16.918,0.657
							c-0.63,0.111-1.269,0.204-1.898,0.25c-0.806-0.87-1.593-1.759-2.37-2.667c-3.232-3.815-6.176-7.76-8.964-11.797
							c3.334-1.037,6.954-1.408,9.13-1.158c3.278,0.37,8.917,2.019,11.39-0.685c3.519-3.852-1.185-6.223-4.389-7.501
							c-4.399-1.722-8.927-1.083-13.529-1.25c-1.621-0.055-3.204-0.065-4.769-0.009c-2.926,0.111-5.713-1.241-7.297-3.704
							l-0.028-0.037c-3.436-5.352-8.001-12.251-14.233-14.742c-0.676-0.269-1.371-0.491-2.084-0.648
							c-2.676-0.602-5.213-0.602-7.852-0.38c1.176-0.63,2.38-1.232,3.602-1.796c0.009,0,0.009,0,0.009,0
							c10.417-4.862,22.428-7.427,33.744-8.594c0.046,0,0.083-0.009,0.13-0.009c2.963-0.305,5.806,1.213,7.371,3.741
							c0.454,0.732,0.926,1.472,1.426,2.213c2.084,3.093,5.028,8.862,8.982,9.649c1.935,0.38,2.917-0.667,3.343-2.222
							c0.602-2.158,0.139-5.297-0.315-6.954c-0.333-1.222-0.917-2.296-1.602-3.315c-0.676-0.991-1.445-1.935-2.148-2.908
							c0.657,0.028,1.306,0.046,1.963,0.055h0.009c4.593,0.092,9.167-0.065,13.807,0.324c0.787,0.065,1.574,0.139,2.371,0.213
							c4.204,0.38,8.445,0.815,12.621,1.343c0.5,0.056,1,0.12,1.491,0.185c0.296,0.695,0.574,1.398,0.824,2.111
							c0.361,0.963,0.685,1.945,0.991,2.926c0.472,1.5,0.898,3.01,1.333,4.51c0.324,1.121,0.648,2.223,0.991,3.306
							c0.12,0.38,0.241,0.778,0.352,1.167c0.611,2.139,1.12,4.408,1.732,6.658c1.306,4.797,3.028,9.473,7.102,12.501
							c3.334,2.472,6.223,3.093,8.843-0.426c0.546-0.732,0.972-1.481,1.278-2.25c0.676-1.685,0.815-3.445,0.63-5.25
							c-0.102-1.037-0.306-2.093-0.583-3.167c-1.417-5.51-4.408-9.816-7.306-14.594c-0.593-0.982-1.222-1.926-1.88-2.843
							c-0.463-0.658-0.945-1.296-1.426-1.936c0.834,0.028,1.667,0.065,2.509,0.111c1.352,0.065,2.713,0.148,4.075,0.25
							c0.926,0.065,1.889,0.083,2.871,0.074c1.139-0.009,2.306-0.046,3.482-0.074c3.139-0.056,6.306,0.009,9.01,1.13
							c3.297,1.361,6.473,4.973,8.788,7.612c4.954,5.658,8.13,11.844,11.427,18.548c2.148,4.371,4.361,8.991,5.371,13.751
							C165.436,281.252,166.63,284.687,165.898,285.78z"/>
					</g>
					<g>
						<path style="fill:#BBE3FF;" d="M172.399,324.413c-8.908-13.233-23.798-23.539-36.216-33.234
							c-2.315-1.806-4.658-3.565-7.028-5.288c-9.834-7.13-20.178-13.473-31.012-19.039c-3.658-1.88-7.352-3.741-11.084-5.538
							c-3.704-1.787-7.454-3.5-11.242-5.093c-6.389-2.695-12.908-5.056-19.576-6.834c-5.584-1.482-11.306-2.046-16.992-3.019
							c-3.75-0.639-7.501-1.343-11.316-1.287c-0.676-0.269-1.371-0.491-2.084-0.648c-2.676-0.602-5.213-0.602-7.852-0.38
							c1.176-0.63,2.38-1.232,3.602-1.796c0.009,0,0.009,0,0.009,0c3.935-0.806,7.751-1.037,9.723-0.898
							c16.029,1.13,31.707,5.334,46.458,11.557c0.194,0.083,0.398,0.167,0.593,0.25c5.343,2.278,10.64,4.704,15.853,7.279
							c12.584,6.214,24.743,13.334,36.123,21.52c1.185,0.852,2.389,1.722,3.611,2.602c14.825,10.64,31.679,22.891,41.726,37.809
							C177.094,324.45,173.788,326.487,172.399,324.413z"/>
					</g>
				</g>
			</g>
		</g>
	</g>
	<g>
		<g>
			<path style="fill:#D4E5FF;" d="M651.12,356.091c-5.5,25.37-23.45,47.996-47.27,57.053c-2.54,0.962-5.11,1.774-7.69,2.437
				c-27.51,7.125-57.25-1.746-85.34-8.535c-2.78-0.672-5.56-1.317-8.34-1.952c-5.67-1.279-11.36-2.475-17.07-3.576
				c-25.81-4.996-51.94-8.208-78.17-9.627c-11.67-0.644-23.36-0.924-35.06-0.85c-25.35,0.14-50.69,1.933-75.82,5.36
				c-14.91,2.026-29.74,4.632-44.46,7.816c-2.72,0.588-5.44,1.195-8.15,1.821c-18.72,4.323-37.35,9.59-56.49,11.112
				c-9.56,0.766-19.34,0.523-28.78-1.186c-9.47-1.699-18.59-4.865-26.81-9.982c-19.61-12.195-32.08-34.792-34.34-58.155
				c-2.26-23.363,5.1-47.155,18.28-66.382c10.2-14.903,24.49-29.208,24.34-47.398c-0.13-15.902-11.11-28.517-17.11-42.43
				c-6.43-14.884-5.46-30.516,2.23-44.858c5.75-10.738,14.54-19.6,24.4-26.659c47.74-34.213,96.43-15.118,146.66,0.112
				c21.59,6.546,40.42,7.125,62.62,2.988c24.03-4.491,47.87,4.8,71.96,2.82c30.12-2.484,58.36-19.899,89.03-23.662
				c35.21-4.314,78.17,3.903,101.03,33.859c10.64,13.951,15.57,33.121,10.04,49.891c-5.39,16.36-19.97,29.46-20.83,46.707
				c-0.9,18.246,13.6,32.598,24.26,47.464c0.43,0.598,0.85,1.195,1.27,1.793C650.19,303.286,656.63,330.721,651.12,356.091z"/>
		</g>
	</g>
</g>
<g id="OBJECTS">
	<g>
		<g>
			<g>
				<path style="fill:#29A6DD;" d="M181.86,210.055c0.166,7.844-2.946,16.479-3.249,24.652c-0.368,9.912-1.051,17.833-4.626,26.587
					c-3.873,9.481-8.494,17.834-11.222,28.29c-2.719,10.419-4.743,20.998-5.153,32.069c-0.269,7.283,1.746,7.558,5.518,12.051
					c5.154,6.138,10.271,10.052,17.081,11.726c15.22,3.741,31.957-0.22,46.919-4.078c5.588-1.441,13.752-1.789,18.619-5.988
					c2.57-2.217,2.545-8.622,2.92-12.843c0.921-10.361,1-20.93-0.556-31.222c-0.751-4.966-1.768-9.957-2.624-14.8
					c-0.992-5.608-2.896-10.016-4.618-15.148c-2.059-6.136-4.3-12.174-5.906-18.624c-1.858-7.465-2.075-15.558-2.85-23.377
					c-0.252-2.547,0.05-5.561-0.501-7.905"/>
			</g>
			<g>
				<path style="fill:#221F5B;" d="M181.891,249.357c-1.314,5.304-2.813,10.552-4.499,15.751c-0.298,0.92,1.149,1.315,1.446,0.399
					c1.685-5.198,3.184-10.446,4.499-15.751C183.57,248.818,182.123,248.419,181.891,249.357z"/>
				<path style="fill:#221F5B;" d="M186.877,256.806c-0.205,2.664-0.41,5.327-0.615,7.991c-0.074,0.963,1.426,0.958,1.5,0
					c0.205-2.664,0.41-5.327,0.615-7.991C188.451,255.844,186.951,255.849,186.877,256.806z"/>
				<path style="fill:#221F5B;" d="M222.326,275.109c-2.519-6.547-3.755-13.283-3.702-20.303c0.007-0.965-1.493-0.966-1.5,0
					c-0.054,7.156,1.183,14.017,3.755,20.702C221.222,276.399,222.673,276.012,222.326,275.109z"/>
				<path style="fill:#221F5B;" d="M226.189,248.038c0.088-0.961-1.412-0.955-1.5,0c-0.903,9.838,4.572,18.979,3.173,28.803
					c-0.135,0.944,1.311,1.352,1.446,0.399C230.733,267.236,225.273,258.013,226.189,248.038z"/>
				<path style="fill:#221F5B;" d="M231.463,249.116c-0.246-0.933-1.693-0.537-1.447,0.399c4.576,17.381,9,34.965,7.61,53.086
					c-0.074,0.963,1.426,0.958,1.5,0C240.526,284.347,236.072,266.627,231.463,249.116z"/>
			</g>
		</g>
		<g>
			<path style="fill:#A55329;" d="M108.201,312.797c2.059,4.515,6.812,11.188,17.08,12.014l29.051,23.476
				c5.486,6.317,12.884,4.69,16.586-2.802c6.036-12.215,11.971-27.361,16.459-56.91c0.69-4.542,0.229-9.238-1.618-13.448
				c-2.49-5.678-5.967-7.372-10.401-5.197c-3.292,1.614-5.554,4.766-6.387,8.323l-12.213,52.149l-22.988-11.452
				c0,0-9.23-27.343-24.053-13.533C107.689,307.31,107.052,310.278,108.201,312.797z"/>
			<g>
				<path style="fill:#221F5B;" d="M104.477,288.265l15.513,0.043c1.448,0.004,2.722,0.951,3.137,2.332l11.373,37.859
					c0.631,2.1-0.953,4.211-3.155,4.205l-16.305-0.046c-1.471-0.004-2.76-0.982-3.154-2.392l-10.582-37.857
					C100.721,290.323,102.301,288.259,104.477,288.265z"/>
			</g>
			<path style="fill:#A55329;" d="M104.423,303.972c0,0,5.5,1.564,10.334-1.167c1.076-0.608,2.532-0.269,3.004,0.869
				c0.585,1.408-0.616,3.438-9.747,5.072c0,0,4.056,1.262,9.311-1.453c0.94-0.486,2.13-0.42,2.944,0.255
				c0.742,0.615,0.981,1.674-1.032,3.45c0,0-2.602,2.207-7.239,2.234c0,0,2.869,2.014,7.152-0.362
				c0.968-0.537,2.238-0.441,2.951,0.403c0.829,0.979,0.647,2.524-4.789,4.375c-1.981,0.675-4.111,0.948-6.166,0.546
				C107.402,317.462,102.727,314.509,104.423,303.972z"/>
		</g>
		<g>
			<path style="fill:#E3B020;" d="M231.94,363.415c-1.65-3.82-2.4-7.92-2.15-12.06c0.16-2.91,0.82-5.79,1.94-8.59l0.87-2.08
				l5.73-13.71c1.83-4.44,2.74-9.18,2.74-13.92c0-4.01-0.66-8.01-1.99-11.88c-2.04-5.88-2.79-12.13-2.2-18.31l1.19-11.86
				c-3.41-5.69-56.94-7.74-60.9-1.7c-3.71,5.91-1.66,20.67-6.51,30.52c-4.97,10.07-1.51,23.3,3.75,33.63l5.5,10.71l4.53,8.86
				c0.64,1.76,0.87,3.91,0.87,6.18c0,1.07-0.02,2.15-0.11,3.23c-0.16,1.9-0.76,3.73-1.79,5.35l-24.93,48.02
				c9.44,1.83,19.22,2.09,28.78,1.27c19.14-1.63,37.77-7.27,56.49-11.9c2.71-0.67,5.43-1.32,8.15-1.95L231.94,363.415z"/>
		</g>
		<path style="fill:#A55329;" d="M198.243,266.905c-0.02,0.608,0.118,1.72,0.371,3.187c1.24,7.196,10.792,8.264,14.007,1.707
			c0.033-0.067,0.064-0.122,0.094-0.166c0.86-1.233,1.376-2.694,1.404-4.27c0.086-4.155,0.315-9.085,0.544-12.896
			c0.028-0.602,0.086-1.175,0.114-1.691c0.201-2.321,0.43-3.955,0.659-4.356l-10.174,1.404l-6.161,0.831l-0.573,6.649
			c-0.057,0.401-0.115,2.579-0.201,5.273c-0.029,0.774-0.057,1.633-0.057,2.493C198.271,265.672,198.271,266.303,198.243,266.905z"
			/>
		<path style="fill:#953504;" d="M198.329,262.577c1.003,0.229,2.063,0.344,3.124,0.344c5.646,0,10.575-3.41,13.212-8.454
			c0.028-0.602,0.086-1.175,0.114-1.691c0.201-2.321,0.43-3.955,0.659-4.356l-10.174,1.404l-6.161,0.831l-0.573,6.649
			C198.472,257.705,198.415,259.883,198.329,262.577z"/>
		<g>
			<g>
				<g>
					<path style="fill:#A55329;" d="M181.735,228.421c-1.988,12.187,4.96,25.97,16.516,29.254c4.194,1.193,8.989-0.149,13.47-2.971
						c4.828-2.961,9.309-7.602,12.368-12.502c4.014-0.72,8.414-2.028,10.258-7.449c1.467-4.28,0.861-10.224-2.766-10.903
						c-1.071-0.205-2.346,0.046-3.645,0.649c-1.458-12.772-9.267-27.668-18.31-29.412c-2.803-0.547-5.541-0.694-8.158-0.172
						C192.927,196.533,185.579,204.871,181.735,228.421z"/>
					<g>
						<g>
							<g>
								<path style="fill:#221F5B;" d="M192.982,236.516c-0.054,0-0.11-0.007-0.165-0.02c-1.368-0.354-3.19-0.98-3.221-2.314
									c-0.041-1.854,3.787-3.227,5.433-3.731c0.35-0.102,0.715,0.089,0.824,0.437c0.106,0.347-0.089,0.715-0.437,0.822
									c-2.326,0.713-4.517,1.9-4.503,2.442c0,0.005,0.106,0.516,2.232,1.067c0.352,0.092,0.564,0.451,0.475,0.803
									C193.542,236.318,193.275,236.515,192.982,236.516z"/>
							</g>
						</g>
						<g>
							<g>
								<path style="fill:#221F5B;" d="M193.504,244.558c-0.742-0.073-1.198-0.173-1.218-0.179
									c-0.402-0.094-0.652-0.496-0.561-0.898c0.096-0.401,0.461-0.666,0.9-0.561c0.366,0.089,9.153,1.998,12.224-6.426
									c0.141-0.388,0.562-0.593,0.961-0.447c0.387,0.141,0.587,0.572,0.446,0.961
									C203.452,244.698,196.359,244.838,193.504,244.558z"/>
							</g>
						</g>
						<path style="fill:#221F5B;" d="M207.086,227.394c-0.063,1.333-1.094,2.367-2.306,2.31c-1.211-0.057-2.142-1.183-2.079-2.516
							c0.063-1.333,1.095-2.367,2.306-2.31C206.217,224.934,207.148,226.061,207.086,227.394z"/>
						<path style="fill:#221F5B;" d="M191.995,226.372c-0.062,1.333-1.095,2.367-2.305,2.31c-1.211-0.057-2.142-1.183-2.08-2.515
							c0.062-1.333,1.095-2.367,2.306-2.311C191.127,223.914,192.057,225.04,191.995,226.372z"/>
						<g>
							<g>
								<path style="fill:#221F5B;" d="M212.652,223.079c-0.282,0.001-0.556-0.161-0.682-0.436
									c-1.992-4.323-5.956-2.802-6.125-2.736c-0.383,0.152-0.816-0.035-0.974-0.418c-0.152-0.383,0.035-0.82,0.421-0.972
									c1.876-0.75,5.976-0.977,8.04,3.5c0.173,0.376,0.009,0.82-0.37,0.993C212.863,223.057,212.758,223.079,212.652,223.079z"/>
							</g>
						</g>
						<g>
							<g>
								<path style="fill:#221F5B;" d="M192.6,218.512c-0.179,0.155-0.442,0.203-0.673,0.098c-3.639-1.652-5.322,1.491-5.394,1.626
									c-0.16,0.307-0.537,0.426-0.847,0.268c-0.308-0.16-0.428-0.54-0.267-0.849c0.78-1.507,3.26-3.902,7.029-2.192
									c0.316,0.143,0.457,0.517,0.311,0.834C192.722,218.382,192.667,218.453,192.6,218.512z"/>
							</g>
						</g>
					</g>
				</g>
			</g>
		</g>
		<path style="fill:#221F5B;" d="M237.828,300.226c-0.238-0.892,1.144-1.272,1.382-0.381c1.651,6.179,2.308,12.405,1.971,18.795
			c-0.048,0.917-1.482,0.923-1.433,0C240.077,312.391,239.444,306.274,237.828,300.226z"/>
		<path style="fill:#221F5B;" d="M169.997,302.509c0.78-2.453,0.8-6.101,2.31-8.143c0.542-0.734,1.786-0.02,1.237,0.723
			c-0.939,1.27-0.919,3.389-1.303,4.883c-0.354,1.377-0.798,2.729-1.241,4.079c-0.955,2.906-1.923,5.776-2.517,8.783
			c-0.179,0.904-1.56,0.521-1.382-0.381C167.775,309.044,168.947,305.812,169.997,302.509z"/>
		<path style="fill:#221F5B;" d="M203.349,308.681c0.211-0.897,1.594-0.517,1.382,0.381c-2.227,9.445,1.134,18.953,8.705,24.986
			c0.721,0.575-0.299,1.582-1.013,1.013C204.46,328.716,201.016,318.573,203.349,308.681z"/>
		<path style="fill:#A55329;" d="M244.768,298.141c-0.317,1.626-0.748,3.238-1.264,4.835c-2.781,8.396-5.545,15.717-8.25,22.061
			c-6.268,14.823-12.066,24.371-16.418,30.315c-4.466,6.085-11.49,6.617-17.275,1.89c-11.657-9.54-27.626-27.198-34.951-35.538
			c-2.494-2.823-3.981-4.581-3.981-4.581c-0.057,0.042-0.114,0.099-0.171,0.141l-2.805-3.12c-3.681-0.01-7.29-0.813-10.611-2.35
			c-1.888-0.854-3.69-1.949-5.349-3.269l-3.702-2.911c-6.152-6.058,0.433-12.491,0.433-12.491
			c-19.284-6.505-14.652-10.906-14.652-10.906l17.764,6.133c4.544,1.569,8.701,4.198,12.145,7.688l13.819,13.974l36.388,24.875
			l6.614-16.52l10.608-26.469l6.07-15.149c0.945-2.332,2.571-4.35,4.777-5.433c4.498-2.223,7.617,0.757,9.773,7.356
			C245.786,284.958,246.065,291.679,244.768,298.141z"/>
		<path style="fill:#221F5B;" d="M217.892,270.255c-0.714,6.359-6.859,8.834-12.515,8.862c-6.737,0.034-10.09-4.3-10.311-10.656
			c-0.022-0.642-1.022-0.645-1,0c0.24,6.918,4.133,11.771,11.311,11.656c6.332-0.101,12.74-2.963,13.515-9.862
			C218.964,269.617,217.963,269.622,217.892,270.255z"/>
		<g>
			<g>
				<path style="fill:#29A6DD;" d="M231.562,201.939c-1.189-1.741-2.259-3.343-4.002-4.644c-1.766-1.318-3.213-1.22-4.878-1.676
					c-2.888-0.79-3.707-4.128-6.25-6.251c-2.826-2.359-6.403-2.504-9.894-2.498c-4.758,0.008-8.64,1.105-13.061,3.088
					c-2.476,1.11-4.316,2.767-6.522,4.338c-3.795,2.703-7.645,4.195-11.893,5.712c1.851-0.05,5.255-0.523,7.505-0.449
					c-0.503,2.742-2.878,5.495-3.722,8.349c-0.595,2.01-0.885,3.831-0.96,5.899c-0.127,3.513,1.211,10.568,4.159,12.789
					l2.519-10.958c1.912-0.816,3.511-2.487,5.13-3.55c2.34-1.536,5.304-3.592,7.212-5.599c0.188,4.863,0.995,7.201,4.613,10.685
					c1.212-3.824,3.096-6.264,5.148-9.599c0.543,3.715,3.33,4.826,6.035,6.897c3.051,2.334,5.97,5.097,7.268,8.795
					c2.55,7.263,0.454,12.665-1.841,19.394c2.2-2.663,4.996-4.533,7.12-7.367c2.04-2.722,3.526-5.901,4.698-9.066
					c1.967-5.308,1.253-10.62,1.809-16.099c2.131,2.288,4.616,2.821,7.585,2.996C236.64,212.598,233.129,204.235,231.562,201.939z"
					/>
			</g>
			<g>
				<path style="fill:#221F5B;" d="M212.411,193.198c-7.384,0.085-14.626,4.815-14.327,12.88c0.036,0.962,1.536,0.967,1.5,0
					c-0.22-5.921,4.118-9.721,9.303-10.946c-4.167,2.912-6.246,9.536-5.614,14.145c0.131,0.952,1.576,0.547,1.447-0.399
					c-0.664-4.839,2.346-12.581,7.598-13.625c0.407-0.081,0.553-0.395,0.526-0.711C213.331,194.162,213.195,193.189,212.411,193.198
					z"/>
				<path style="fill:#221F5B;" d="M226.57,213.601c-1.759-5.948-5.765-10.159-8.236-15.634c-0.396-0.879-1.689-0.117-1.295,0.757
					c2.183,4.838,5.786,8.566,7.585,13.72c1.795,5.144,2.84,11.123,1.138,16.397c0.313-3.412-0.958-6.654-3.556-9.561
					c-2.086-2.334-4.702-4.162-6.682-6.597c-4.091-5.033-2.922-10.907-1.406-16.663c0.246-0.934-1.2-1.333-1.446-0.399
					c-1.493,5.669-2.736,11.781,0.865,16.932c4.584,6.557,14.548,10.588,9.445,20.372c-0.446,0.855,0.848,1.614,1.295,0.757
					c0.784-1.504,1.25-2.99,1.435-4.447c0.095,0.666,1.218,0.86,1.478,0.066C228.849,224.227,228.059,218.637,226.57,213.601z"/>
				<path style="fill:#221F5B;" d="M223.082,197.63c-0.893-0.365-1.282,1.086-0.399,1.447c4.471,1.825,4.712,7.127,4.774,11.259
					c0.014,0.964,1.515,0.967,1.5,0C228.883,205.376,228.283,199.753,223.082,197.63z"/>
				<path style="fill:#221F5B;" d="M208.128,191.462c-11.745-0.885-19.239,8.757-22.556,18.914c-0.3,0.92,1.148,1.314,1.446,0.399
					c3.113-9.532,10.05-18.646,21.11-17.813C209.09,193.035,209.086,191.535,208.128,191.462z"/>
				<path style="fill:#221F5B;" d="M204.92,189.09c-12.389,3.223-26.593,11.422-23.989,26.404c0.165,0.949,1.611,0.547,1.446-0.399
					c-2.448-14.089,11.493-21.58,22.942-24.559C206.252,190.293,205.856,188.846,204.92,189.09z"/>
			</g>
		</g>
	</g>
	<g>
		<g>
			<path style="fill:#E3B020;" d="M581.167,239.397c-4.321-12.956-1.512-27.534-8.356-38.649c-0.034-0.055-0.068-0.11-0.102-0.164
				c-5.631-9.082-15.126-14.035-24.896-13.661l-3.104,0.119c-13.674,0.523-24.911,12.433-26.324,27.901l-0.026,0.283
				c-1.406,15.179-7.038,26.551-17.017,34.675c-4.378,3.564-8.477,7.155-12.214,11.689c4.149,0.253,8.371-0.553,12.375-1.204
				c-2.386,2.635-4.723,4.779-6.287,8.502c-2.149,5.115-2.892,11.19-3.046,16.953c-0.343,12.849,4.275,22.277,11.476,30.284
				c4.038,4.491,7.339,6.575,12.523,8.484c5.185,1.911,10.003,3.151,14.826,6.36c1.53,1.018,5.471,4.126,7.074,3.618
				c0.375-0.119,1.282-2.22,1.546-2.562c1.5-1.944,3.58-3.317,5.318-4.842c4.434-3.89,8.863-7.377,13.047-11.73
				c8.445-8.787,18.448-18.334,23.11-31.525c2.808-7.945,3.856-19.326,4.834-18.12c0.965,1.188,4.208,6.447,11.527,2.911
				C595.255,268.512,583.211,245.524,581.167,239.397z"/>
		</g>
		<g>
			<path style="fill:#BF765E;" d="M646.651,312.797c-2.059,4.515-6.812,11.188-17.08,12.014l-29.051,23.476
				c-5.486,6.317-12.884,4.69-16.586-2.802c-6.036-12.215-11.971-27.361-16.459-56.91c-0.69-4.542-0.229-9.238,1.618-13.448
				c2.49-5.678,5.967-7.372,10.401-5.197c3.291,1.614,5.554,4.766,6.387,8.323l12.213,52.149l22.988-11.452
				c0,0,9.23-27.343,24.053-13.533C647.164,307.31,647.8,310.278,646.651,312.797z"/>
			<g>
				<path style="fill:#221F5B;" d="M650.376,288.265l-15.513,0.043c-1.448,0.004-2.722,0.951-3.137,2.332l-11.373,37.859
					c-0.631,2.1,0.953,4.211,3.155,4.205l16.305-0.046c1.471-0.004,2.76-0.982,3.154-2.392l10.581-37.857
					C654.131,290.323,652.551,288.259,650.376,288.265z"/>
			</g>
			<path style="fill:#BF765E;" d="M650.43,303.972c0,0-5.5,1.564-10.334-1.167c-1.076-0.608-2.532-0.269-3.004,0.869
				c-0.585,1.408,0.616,3.438,9.747,5.072c0,0-4.056,1.262-9.311-1.453c-0.94-0.486-2.13-0.42-2.944,0.255
				c-0.742,0.615-0.981,1.674,1.032,3.45c0,0,2.602,2.207,7.239,2.234c0,0-2.869,2.014-7.152-0.362
				c-0.968-0.537-2.238-0.441-2.951,0.403c-0.829,0.979-0.647,2.524,4.789,4.375c1.982,0.675,4.111,0.948,6.166,0.546
				C647.451,317.462,652.125,314.509,650.43,303.972z"/>
		</g>
		<g>
			<path style="fill:#2C4BDC;" d="M571.44,367.785c-1.03-1.62-1.62-3.45-1.78-5.35c-0.1-1.08-0.12-2.16-0.12-3.23
				c0-2.27,0.23-4.42,0.87-6.18l4.53-8.86l5.5-10.71c5.26-10.33,8.72-23.56,3.75-33.63c-4.85-9.85-2.8-24.61-6.51-30.52
				c-3.96-6.04-57.49-3.99-60.9,1.7l1.19,11.86c0.59,6.18-0.16,12.43-2.2,18.31c-1.33,3.87-1.99,7.87-1.99,11.88
				c0,4.74,0.91,9.48,2.74,13.92l5.73,13.71l0.87,2.08c1.12,2.8,1.78,5.68,1.94,8.59c0.26,4.14-0.5,8.24-2.15,12.06l-20.43,40.75
				c2.78,0.68,5.56,1.37,8.34,2.09c28.09,7.27,57.83,16.77,85.34,9.14L571.44,367.785z"/>
		</g>
		<path style="fill:#BF765E;" d="M556.609,266.905c0.143,4.471-8.218,36.159-8.218,36.159s-4.821-29.338-6.254-31.43
			c-0.86-1.233-1.376-2.694-1.405-4.27c-0.086-4.155-0.315-9.085-0.544-12.896c-0.028-0.602-0.086-1.175-0.114-1.691
			c-0.201-2.321-0.43-3.955-0.659-4.356l10.174,1.404l6.162,0.831l0.573,6.649c0.057,0.401,0.115,2.579,0.201,5.273
			c0.029,0.774,0.057,1.633,0.057,2.493C556.581,265.672,556.581,266.303,556.609,266.905z"/>
		<path style="fill:#A55329;" d="M556.523,262.577c-1.003,0.229-2.063,0.344-3.123,0.344c-5.646,0-10.575-3.41-13.212-8.454
			c-0.028-0.602-0.086-1.175-0.114-1.691c-0.201-2.321-0.43-3.955-0.659-4.356l10.174,1.404l6.162,0.831l0.573,6.649
			C556.38,257.705,556.438,259.883,556.523,262.577z"/>
		<g>
			<g>
				<g>
					<path style="fill:#BF765E;" d="M573.117,228.421c1.989,12.187-4.959,25.97-16.516,29.254
						c-4.194,1.193-8.989-0.149-13.469-2.971c-4.828-2.961-9.308-7.602-12.369-12.502c-4.014-0.72-8.414-2.028-10.258-7.449
						c-1.466-4.28-0.861-10.224,2.766-10.903c1.071-0.205,2.346,0.046,3.645,0.649c1.458-12.772,9.267-27.668,18.31-29.412
						c2.803-0.547,5.541-0.694,8.158-0.172C561.925,196.533,569.273,204.871,573.117,228.421z"/>
					<g>
						<g>
							<g>
								<path style="fill:#221F5B;" d="M561.87,236.516c0.054,0,0.11-0.007,0.165-0.02c1.369-0.354,3.19-0.98,3.221-2.314
									c0.041-1.854-3.787-3.227-5.433-3.731c-0.35-0.102-0.715,0.089-0.824,0.437c-0.106,0.347,0.089,0.715,0.437,0.822
									c2.327,0.713,4.517,1.9,4.503,2.442c0,0.005-0.106,0.516-2.232,1.067c-0.352,0.092-0.564,0.451-0.474,0.803
									C561.31,236.318,561.577,236.515,561.87,236.516z"/>
							</g>
						</g>
						<g>
							<g>
								<path style="fill:#221F5B;" d="M561.348,244.558c0.742-0.073,1.198-0.173,1.218-0.179c0.402-0.094,0.652-0.496,0.561-0.898
									c-0.096-0.401-0.461-0.666-0.9-0.561c-0.366,0.089-9.153,1.998-12.224-6.426c-0.141-0.388-0.562-0.593-0.961-0.447
									c-0.387,0.141-0.587,0.572-0.446,0.961C551.4,244.698,558.493,244.838,561.348,244.558z"/>
							</g>
						</g>
						<path style="fill:#221F5B;" d="M547.766,227.394c0.063,1.333,1.095,2.367,2.306,2.31c1.21-0.057,2.142-1.183,2.079-2.516
							c-0.063-1.333-1.094-2.367-2.306-2.31C548.635,224.934,547.704,226.061,547.766,227.394z"/>
						<path style="fill:#221F5B;" d="M562.857,226.372c0.062,1.333,1.095,2.367,2.305,2.31c1.211-0.057,2.143-1.183,2.08-2.515
							c-0.062-1.333-1.095-2.367-2.306-2.311C563.725,223.914,562.795,225.04,562.857,226.372z"/>
						<g>
							<g>
								<path style="fill:#221F5B;" d="M542.2,223.079c0.282,0.001,0.556-0.161,0.682-0.436c1.992-4.323,5.956-2.802,6.125-2.736
									c0.383,0.152,0.816-0.035,0.974-0.418c0.151-0.383-0.035-0.82-0.421-0.972c-1.876-0.75-5.976-0.977-8.041,3.5
									c-0.172,0.376-0.009,0.82,0.37,0.993C541.989,223.057,542.094,223.079,542.2,223.079z"/>
							</g>
						</g>
						<g>
							<g>
								<path style="fill:#221F5B;" d="M562.252,218.512c0.179,0.155,0.442,0.203,0.673,0.098c3.639-1.652,5.322,1.491,5.394,1.626
									c0.159,0.307,0.537,0.426,0.847,0.268c0.308-0.16,0.428-0.54,0.267-0.849c-0.78-1.507-3.26-3.902-7.029-2.192
									c-0.316,0.143-0.457,0.517-0.311,0.834C562.13,218.382,562.185,218.453,562.252,218.512z"/>
							</g>
						</g>
					</g>
				</g>
			</g>
		</g>
		<path style="fill:#221F5B;" d="M517.024,300.226c0.238-0.892-1.144-1.272-1.382-0.381c-1.651,6.179-2.308,12.405-1.97,18.795
			c0.048,0.917,1.482,0.923,1.433,0C514.775,312.391,515.408,306.274,517.024,300.226z"/>
		<path style="fill:#221F5B;" d="M584.855,302.509c-0.78-2.453-0.8-6.101-2.31-8.143c-0.542-0.734-1.786-0.02-1.237,0.723
			c0.939,1.27,0.919,3.389,1.303,4.883c0.354,1.377,0.798,2.729,1.241,4.079c0.955,2.906,1.923,5.776,2.517,8.783
			c0.179,0.904,1.56,0.521,1.382-0.381C587.077,309.044,585.905,305.812,584.855,302.509z"/>
		<path style="fill:#221F5B;" d="M551.503,308.681c-0.211-0.897-1.594-0.517-1.382,0.381c2.227,9.445-1.134,18.953-8.705,24.986
			c-0.721,0.575,0.299,1.582,1.013,1.013C550.392,328.716,553.836,318.573,551.503,308.681z"/>
		<path style="fill:#221F5B;" d="M541.282,267.113c-0.035-0.122-0.126-0.165-0.196-0.241c0.044-0.449-0.27-0.95-0.839-0.798
			c-4.042,1.079-8.022,1.866-12.185,2.383c-0.646,0.08-0.907,0.711-0.507,1.223c2.082,2.658,4.339,4.649,6.884,6.782
			c3.776,3.163,0.1,3.694-3.351,5.873c-0.413,0.261-0.449,0.768-0.145,1.125c5.761,6.766,11.523,13.533,17.284,20.3
			c0.511,0.6,1.306-0.066,1.198-0.697C547.346,290.93,544.635,278.958,541.282,267.113z M547.538,300.683
			c-0.63,0.242-8.844-10.322-9.532-11.13c-1.318-1.548-4.583-3.997-4.325-6.116c0.262-2.152,3.738-3.406,5.59-4.575
			c0.435-0.275,0.493-0.976,0-1.237c-2.368-1.252-10.005-5.141-8.704-8.045c0.273-0.608,6.964-1.54,9.363-1.979
			C540.892,270.998,549.099,300.083,547.538,300.683z"/>
		<path style="fill:#221F5B;" d="M548.391,303.064c-0.108,0.631,0.687,1.297,1.198,0.697c5.761-6.767,11.522-13.533,17.283-20.3
			c0.304-0.357,0.268-0.864-0.145-1.125c-3.451-2.179-7.127-2.71-3.351-5.873c2.546-2.132,4.802-4.123,6.884-6.782
			c0.401-0.512,0.139-1.143-0.507-1.223c-4.163-0.518-8.143-1.305-12.185-2.383c-0.57-0.152-0.884,0.349-0.84,0.798
			c-0.07,0.076-0.161,0.119-0.196,0.241C553.181,278.958,550.469,290.93,548.391,303.064z M557.886,267.6
			c2.398,0.439,9.09,1.371,9.363,1.979c1.301,2.904-6.335,6.793-8.703,8.045c-0.493,0.261-0.435,0.962,0,1.237
			c1.851,1.169,5.328,2.423,5.59,4.575c0.258,2.119-3.007,4.568-4.325,6.116c-0.688,0.808-8.901,11.373-9.532,11.13
			C548.717,300.083,556.924,270.998,557.886,267.6z"/>
		<path style="fill:#BF765E;" d="M510.085,298.141c0.317,1.626,0.748,3.238,1.265,4.835c2.781,8.396,5.545,15.717,8.25,22.061
			c6.268,14.823,12.066,24.371,16.418,30.315c4.466,6.085,11.49,6.617,17.276,1.89c11.657-9.54,27.626-27.198,34.951-35.538
			c2.494-2.823,3.981-4.581,3.981-4.581c0.057,0.042,0.114,0.099,0.171,0.141l2.805-3.12c3.682-0.01,7.29-0.813,10.611-2.35
			c1.888-0.854,3.69-1.949,5.349-3.269l3.702-2.911c6.152-6.058-0.433-12.491-0.433-12.491
			c19.284-6.505,14.652-10.906,14.652-10.906l-17.765,6.133c-4.544,1.569-8.701,4.198-12.145,7.688l-13.819,13.974l-36.388,24.875
			l-6.614-16.52l-10.607-26.469l-6.07-15.149c-0.945-2.332-2.571-4.35-4.777-5.433c-4.498-2.223-7.617,0.757-9.773,7.356
			C509.066,284.958,508.787,291.679,510.085,298.141z"/>
		<g>
			<path style="fill:#E3B020;" d="M523.61,218.555c0.709,0.941,0.813,3.006,1.251,4.237c0.816,2.292,1.684,4.638,2.944,6.707
				c2.429,3.989,5.504,8.997,9.273,11.743c-0.445-4.487-3.898-8.379-3.468-13.324c0.514-5.899,4.49-11.088,6.304-16.555
				c1.164,2.222,1.643,6.438,0.528,8.797c7.434-2.292,13.534-9.654,18.124-15.534c1.183,3.88,1.715,8.941,0.426,12.871
				c3.487-2.645,4.222-6.053,6.619-9.371c1.053,2.286,2.665,4.416,3.752,6.774c0.933,2.022,1.56,4.761,2.821,6.553
				c1-7.602-0.947-13.263-5.331-19.459c-2.77-3.915-5.546-7.643-10.234-9.063c-5.34-1.618-12.075-0.807-16.906,1.873
				c-6.892,3.822-9.828,9.571-13.054,16.507c-0.785,1.688-1.564,3.883-1.812,5.731c-0.216,1.611,0.348,3.685-0.238,5.014"/>
		</g>
		<g>
			<path style="fill:#221F5B;" d="M532.163,230.263c-3.901-3.82-3.864-12.16-4.331-17.206c-0.059-0.635-1.059-0.642-1,0
				c0.509,5.506,0.41,13.787,4.624,17.913C531.917,231.421,532.624,230.714,532.163,230.263z"/>
			<path style="fill:#221F5B;" d="M532.332,211.904c-1.435,3.681-1.99,7.459-1.676,11.397c0.051,0.637,1.051,0.643,1,0
				c-0.306-3.84,0.241-7.543,1.64-11.131C533.531,211.57,532.564,211.309,532.332,211.904z"/>
			<path style="fill:#221F5B;" d="M544.606,207.514c-0.316-0.561-1.18-0.057-0.864,0.505c1.38,2.453,1.5,5.29,0.291,7.838
				c-0.274,0.578,0.588,1.087,0.863,0.505C546.263,213.482,546.172,210.297,544.606,207.514z"/>
			<path style="fill:#221F5B;" d="M554.215,198.034c-0.043-0.639-1.044-0.643-1,0c0.428,6.337-0.678,13.189-6.843,16.402
				c-0.571,0.298-0.066,1.161,0.505,0.863C553.323,211.939,554.667,204.72,554.215,198.034z"/>
			<path style="fill:#221F5B;" d="M560.4,203.403c-0.199-0.609-1.165-0.348-0.964,0.266c0.601,1.838,0.982,3.71,1.13,5.64
				c0.049,0.638,1.049,0.643,1,0C561.411,207.29,561.03,205.328,560.4,203.403z"/>
			<path style="fill:#221F5B;" d="M563.367,202.055c-0.029,2.771-0.441,5.465-1.238,8.117c-0.185,0.618,0.779,0.882,0.964,0.266
				c0.823-2.74,1.244-5.523,1.273-8.383C564.373,201.411,563.373,201.411,563.367,202.055z"/>
			<path style="fill:#221F5B;" d="M570.799,210.005c-0.324-0.556-1.188-0.053-0.864,0.505c9.695,16.642,5.153,35.884,0.595,53.37
				c-0.162,0.623,0.802,0.889,0.964,0.266C576.121,246.396,580.629,226.877,570.799,210.005z"/>
			<path style="fill:#221F5B;" d="M584.855,260.011c-3.426-5.26-5.732-10.945-6.943-17.101c-0.124-0.631-1.088-0.364-0.964,0.266
				c1.226,6.233,3.577,12.019,7.043,17.34C584.341,261.053,585.208,260.552,584.855,260.011z"/>
			<path style="fill:#221F5B;" d="M577.407,254.396c-0.231-0.593-1.198-0.335-0.964,0.266c1.183,3.036,1.579,6.163,1.192,9.397
				c-0.076,0.638,0.924,0.632,1,0C579.032,260.73,578.624,257.519,577.407,254.396z"/>
			<path style="fill:#221F5B;" d="M527.386,258.155c-1.693-4.715-2.014-9.546-0.924-14.438c0.14-0.627-0.824-0.895-0.964-0.266
				c-1.126,5.053-0.827,10.095,0.924,14.969C526.638,259.022,527.605,258.763,527.386,258.155z"/>
			<path style="fill:#221F5B;" d="M534.063,264.823c-3.671-5.581-3.619-12.085-3.39-18.522c0.023-0.644-0.977-0.643-1,0
				c-0.235,6.627-0.24,13.299,3.527,19.027C533.551,265.863,534.418,265.362,534.063,264.823z"/>
			<path style="fill:#221F5B;" d="M516.932,236.105c-2.503,10.008-10.26,16.601-18.237,22.461c-0.513,0.377-0.015,1.245,0.505,0.863
				c8.204-6.028,16.127-12.786,18.696-23.059C518.053,235.746,517.089,235.48,516.932,236.105z"/>
			<path style="fill:#221F5B;" d="M515.9,246.426c-1.908,5.154-5.37,9.488-7.717,14.431c-2.064,4.347-3.587,8.946-4.547,13.661
				c-1.879,9.237-1.506,18.665,0.872,27.767c0.163,0.622,1.127,0.358,0.964-0.266c-2.621-10.03-2.749-20.465-0.109-30.514
				c1.272-4.844,3.159-9.515,5.631-13.872c2.061-3.632,4.411-7.003,5.869-10.942C517.088,246.087,516.121,245.827,515.9,246.426z"/>
			<path style="fill:#221F5B;" d="M544.748,189.898c-14.91,4.409-24.626,17.619-24.448,33.169c0.007,0.643,1.007,0.645,1,0
				c-0.173-15.109,9.228-27.92,23.714-32.204C545.629,190.681,545.367,189.715,544.748,189.898z"/>
			<path style="fill:#221F5B;" d="M546.155,193.637c-6.986,2.903-12.128,8.702-14.106,16.015c-0.168,0.622,0.796,0.887,0.964,0.266
				c1.879-6.946,6.754-12.552,13.408-15.317C547.006,194.358,546.749,193.39,546.155,193.637z"/>
			<path style="fill:#221F5B;" d="M549.69,191.391c-0.178-0.617-1.144-0.355-0.964,0.266c1.562,5.402,1.296,10.827-0.757,16.053
				c-0.235,0.599,0.731,0.859,0.964,0.266C551.05,202.587,551.297,196.947,549.69,191.391z"/>
			<path style="fill:#221F5B;" d="M567.623,200.017c-1.446-2.81-3.995-4.829-6.489-6.691c-2.458-1.835-5.047-2.975-8.138-2.418
				c-0.632,0.114-0.364,1.078,0.266,0.964c4.97-0.895,11.315,4.408,13.497,8.649C567.054,201.094,567.918,200.589,567.623,200.017z"
				/>
		</g>
	</g>
	<g>
		<g>
			<path style="fill:#2C4BDC;" d="M465.61,221.285c-0.284-0.926-0.514-1.91-1.079-2.713c-0.394-0.559-1.122-1.012-1.441-1.616
				c-0.401-0.761-0.074-1.708-0.064-2.584c0.039-3.319-3.575-4.272-5.333-6.4h-4.5c-2.086-0.93-4.116,3.632-4.654,5.068
				c-0.343,0.913-0.974,1.828-1.266,2.84c-0.915,3.168-0.326,6.77,1.328,9.596c2.271,3.881,6.525,7.791,10.663,9.645
				c1.306,0.585,2.608-0.111,3.52-1.225C465.614,230.439,466.933,225.601,465.61,221.285z"/>
		</g>
		<g>
			<g>
				<path style="fill:#EEB29F;" d="M542.53,315.255c-2.06,4.52-6.81,11.19-17.08,12.02l-29.05,23.47
					c-5.49,6.32-12.89,4.69-16.59-2.8c-1.79-3.62-3.57-7.5-5.3-11.93c-4.13-10.52-8-24.19-11.16-44.98
					c-0.69-4.54-0.23-9.24,1.62-13.45c2.49-5.67,5.97-7.37,10.4-5.19c3.29,1.61,5.55,4.76,6.39,8.32l10.71,45.74l1.5,6.41
					l22.99-11.45c0,0,9.23-27.35,24.05-13.53C543.04,309.775,543.68,312.735,542.53,315.255z"/>
				<path style="fill:#6276E7;" d="M492.47,326.455c-5.53,2.94-12.3,6.53-17.96,9.56c-4.13-10.52-8-24.19-11.16-44.98
					c-0.69-4.54-0.23-9.24,1.62-13.45c2.49-5.67,5.97-7.37,10.4-5.19c3.29,1.61,5.55,4.76,6.39,8.32L492.47,326.455z"/>
				<g>
					<path style="fill:#221F5B;" d="M546.253,290.726l-15.513,0.044c-1.448,0.004-2.722,0.951-3.137,2.332l-11.373,37.859
						c-0.631,2.1,0.953,4.211,3.155,4.205l16.305-0.046c1.471-0.004,2.76-0.982,3.154-2.392l10.582-37.857
						C550.008,292.784,548.429,290.72,546.253,290.726z"/>
				</g>
				<path style="fill:#E38466;" d="M546.307,306.433c0,0-5.5,1.564-10.334-1.167c-1.076-0.608-2.532-0.269-3.004,0.869
					c-0.584,1.408,0.616,3.438,9.747,5.071c0,0-4.056,1.262-9.311-1.453c-0.94-0.486-2.13-0.42-2.944,0.255
					c-0.742,0.615-0.981,1.674,1.032,3.45c0,0,2.602,2.207,7.239,2.234c0,0-2.868,2.014-7.152-0.362
					c-0.968-0.537-2.238-0.441-2.951,0.403c-0.829,0.979-0.647,2.524,4.789,4.375c1.981,0.675,4.111,0.949,6.166,0.546
					C543.328,319.923,548.003,316.97,546.307,306.433z"/>
			</g>
			<path style="fill:#6276E7;" d="M407.47,390.085c3.32-13.73,3.98-27.95,2.01-41.93l-10.43-73.9c-0.46-3.28,1.98-6.25,5.28-6.43
				c6.07-0.33,12.04-0.51,17.9-0.53c12.16-0.1,23.88,0.53,35.04,1.94c5.8,0.75,9.48,1.05,14.97,2.24c1,0.22,5.94,63.92,5.94,63.92
				c-0.04,0.35-0.04,0.69-0.04,1.04c-0.03,1.09-0.03,2.22,0,3.35c0,3.32,0.19,6.61,0.51,9.9l0.69,5.24l6.07,46.41
				c-25.81-5.35-51.94-8.79-78.17-10.31L407.47,390.085z"/>
			<path style="fill:#221F5B;" d="M474.309,281.777c-0.055-0.636-1.056-0.642-1,0c1.975,22.711,3.268,45.47,3.879,68.259
				c0.017,0.642,1.017,0.645,1,0C477.578,327.247,476.285,304.488,474.309,281.777z"/>
			<path style="fill:#EEB29F;" d="M457.272,269.237c-1.849,7.71-8.901,13.445-17.332,13.445c-9.12,0-16.673-6.738-17.707-15.388
				C434.393,267.199,446.115,267.826,457.272,269.237z"/>
			<path style="fill:#EEB29F;" d="M503.07,288.455c-1.4,0.56-2.98,1.15-4.77,1.75c0,0,6.59,6.44,0.44,12.49l-3.71,2.91
				c-1.66,1.33-3.46,2.42-5.35,3.27c-0.4,0.18-0.8,0.36-1.21,0.52c-2.98,1.2-6.16,1.82-9.4,1.83l-2.8,3.12
				c-0.06-0.04-0.12-0.09-0.17-0.14c0,0-1.49,1.76-3.98,4.58c-0.73,0.83-1.55,1.76-2.44,2.76c-2.4,2.7-5.34,5.95-8.57,9.41
				c-7.53,8.1-16.6,17.35-23.95,23.37c-5.78,4.73-12.8,4.2-17.27-1.89c-1.86-2.55-3.99-5.76-6.32-9.76
				c-3.09-5.34-6.52-12.09-10.1-20.55c-2.7-6.35-5.47-13.67-8.25-22.06c-0.51-1.6-0.95-3.21-1.26-4.84
				c-1.3-6.46-1.02-13.18,1.04-19.47c2.15-6.6,5.27-9.58,9.77-7.36c2.21,1.09,3.83,3.11,4.78,5.44l6.07,15.15l10.6,26.47l2.23,5.58
				l4.39,10.94l25.45-17.4l8.29-5.67l2.65-1.81l13.81-13.97c0.43-0.44,0.88-0.87,1.33-1.28c3.17-2.86,6.85-5.04,10.82-6.41
				l7.88-2.72l9.88-3.41C512.95,279.305,516.77,282.925,503.07,288.455z"/>
			<path style="fill:#6276E7;" d="M428.45,321.035c-4.3,6.12-10.26,14.68-14.88,21.64c-3.09-5.34-6.52-12.09-10.1-20.55
				c-2.7-6.35-5.47-13.67-8.25-22.06c-0.51-1.6-0.95-3.21-1.26-4.84c-1.3-6.46-1.02-13.18,1.04-19.47c2.15-6.6,5.27-9.58,9.77-7.36
				c2.21,1.09,3.83,3.11,4.78,5.44l6.07,15.15l10.6,26.47L428.45,321.035z"/>
		</g>
		<g>
			<path style="fill:#EEB29F;" d="M429.48,242.795v22.673c0,2.761,0.656,5.813,2.858,7.057c11.708,6.615,16.597-1.553,16.597-7.057
				v-13.821L429.48,242.795z"/>
			<path style="fill:#DE6F47;" d="M429.48,242.795v20.533c1.816,0.587,3.817,0.914,5.953,0.914c6.305,0,11.652-2.899,13.502-6.902
				v-5.694L429.48,242.795z"/>
			<path style="fill:#EEB29F;" d="M411.659,241.335c-2.227-4.182-2.656-10.438,0.896-11.832c1.06-0.415,2.41-0.368,3.823,0.011
				c-0.768-13.534,4.561-30.433,13.44-33.917c11.618-4.557,23.578-1.587,34.046,29.44c4.141,12.277-0.523,27.872-11.636,33.41
				c-8.353,4.162-21.254-2.493-28.876-11.271C419.159,247.186,414.484,246.639,411.659,241.335z"/>
			<g>
				<path style="fill:#221F5B;" d="M453.262,239.848c1.331,0.437,2.529,0.414,3.457,0.01c0.539-0.243,0.971-0.615,1.296-1.114
					c0.362-0.555,0.525-1.193,0.487-1.889c-0.028-1.287-0.697-2.778-1.946-4.26l-5.543-8.001c-0.212-0.307-0.609-0.385-0.93-0.156
					c-0.301,0.22-0.371,0.648-0.158,0.955l5.571,8.064c1.337,1.594,1.744,2.891,1.639,3.769c-0.015,0.3-0.11,0.562-0.243,0.765
					c-0.501,0.774-1.636,0.996-2.938,0.622c-0.055-0.012-0.111-0.024-0.17-0.046c-0.35-0.114-0.766,0.071-0.894,0.426
					c-0.011,0.03-0.022,0.061-0.018,0.097C452.806,239.415,452.948,239.73,453.262,239.848z"/>
			</g>
			<g>
				<g>
					<g>
						<path style="fill:#221F5B;" d="M435,224.722c0.287-0.051,0.535-0.27,0.616-0.579c1.267-4.855,5.549-4.008,5.732-3.971
							c0.415,0.087,0.821-0.187,0.914-0.614c0.087-0.426-0.177-0.844-0.596-0.931c-2.032-0.433-6.226,0.089-7.54,5.117
							c-0.11,0.422,0.134,0.853,0.547,0.964C434.783,224.739,434.893,224.742,435,224.722z"/>
					</g>
				</g>
				<g>
					<g>
						<path style="fill:#221F5B;" d="M451.227,244.083c-0.181-0.229-0.491-0.343-0.802-0.268c-4.877,1.182-6.157-2.991-6.211-3.169
							c-0.12-0.407-0.553-0.635-0.973-0.514c-0.417,0.125-0.66,0.556-0.538,0.965c0.581,1.994,3.026,5.442,8.077,4.219
							c0.424-0.104,0.689-0.522,0.59-0.938C451.344,244.267,451.294,244.169,451.227,244.083z"/>
					</g>
				</g>
				<g>
					<g>
						<path style="fill:#221F5B;" d="M452.311,216.606c0.208,0.128,0.482,0.129,0.698-0.023c3.401-2.387,5.653,0.564,5.749,0.691
							c0.215,0.29,0.619,0.343,0.906,0.122c0.284-0.223,0.34-0.64,0.123-0.93c-1.052-1.419-3.982-3.447-7.504-0.976
							c-0.295,0.207-0.373,0.62-0.17,0.922C452.164,216.493,452.233,216.558,452.311,216.606z"/>
					</g>
				</g>
				<g>
					<path style="fill:#221F5B;" d="M439.555,227.339c-0.023,1.317,1.02,2.404,2.329,2.426c1.309,0.023,2.389-1.026,2.412-2.343
						c0.024-1.317-1.019-2.404-2.329-2.426C440.658,224.973,439.578,226.022,439.555,227.339z"/>
				</g>
				<g>
					<path style="fill:#221F5B;" d="M455.051,223.667c-0.023,1.317,1.019,2.404,2.329,2.427c1.309,0.023,2.389-1.026,2.412-2.344
						c0.023-1.318-1.02-2.404-2.329-2.426C456.154,221.301,455.074,222.35,455.051,223.667z"/>
				</g>
			</g>
		</g>
		<path style="fill:#221F5B;" d="M428.804,320.783c-5.167-13.403-10.335-26.805-15.502-40.208c-0.229-0.594-1.196-0.336-0.964,0.266
			c5.167,13.403,10.335,26.805,15.502,40.208C428.069,321.643,429.036,321.385,428.804,320.783z"/>
		<path style="fill:#221F5B;" d="M427.408,322.647c-4.364,6.253-9.119,12.239-13.739,18.303c-0.39,0.512,0.478,1.01,0.863,0.505
			c4.619-6.065,9.375-12.05,13.739-18.303C428.641,322.623,427.775,322.122,427.408,322.647z"/>
		<path style="fill:#221F5B;" d="M426.001,318.54c-5.222,5.865-9.818,12.176-13.79,18.951c-0.326,0.556,0.538,1.06,0.863,0.505
			c3.928-6.701,8.467-12.947,13.633-18.749C427.135,318.767,426.43,318.058,426.001,318.54z"/>
		<path style="fill:#221F5B;" d="M488.837,326.415c-3.087,1.984-6.32,3.628-9.732,4.932c-0.598,0.229-0.34,1.227,0.266,0.996
			c3.488-1.333,6.812-3.007,9.97-5.036C489.887,326.956,489.386,326.063,488.837,326.415z"/>
		<path style="fill:#221F5B;" d="M488.75,322.265c-3.075,2.527-6.337,4.775-9.786,6.76c-0.558,0.321-0.055,1.185,0.505,0.863
			c3.523-2.028,6.849-4.336,9.989-6.916C489.955,322.564,489.244,321.86,488.75,322.265z"/>
		<path style="fill:#221F5B;" d="M459.622,272.898c-2.444,9.37-11.748,13.391-20.804,12.88c-7.974-0.45-18.329-5.983-19.505-14.733
			c-0.085-0.635-1.049-0.364-0.964,0.266c1.242,9.239,12.012,14.989,20.47,15.467c9.524,0.539,19.219-3.844,21.768-13.614
			C460.749,272.541,459.785,272.275,459.622,272.898z"/>
		<g>
			<path style="fill:#2C4BDC;" d="M461.147,202.268c-0.753-1.231-1.84-1.706-3.036-2.367c-1.989-1.1-1.682-0.757-2.707-2.787
				c-1.774-3.514-3.709-6.247-7.79-7.29c-1.903-0.486-3.564-0.223-5.415-1.202c-2.037-1.078-3.108-2.23-5.588-2.522
				c-3.333-0.393-6.641,0.906-8.853,3.426c-1.189,1.354-1.396,2.459-3.031,3.296c-1.674,0.857-4.064,0.748-5.889,1.63
				c-3.31,1.6-7.267,4.808-7.182,8.894c0.025,1.191,1.18,2.594,0.818,3.652c-0.177,0.517-3.729,2.423-4.392,3.199
				c-5.68,6.65-1.828,16.098,6.182,18.306c0.212,0.058,0.378-0.02,0.486-0.15c0.819,1.165,1.867,2.017,2.475,3.349
				c0.779,1.707,0.231,3.517,0.925,5.31c0.567,1.465,1.45,2.317,2.682,3.25c1.572,1.191,1.718,1.089,2.82,2.843
				c2.457,3.91,9.206,6.17,9.705-0.638c0.144-1.962-0.974-2.898-1.589-4.555c-1.007-2.712-0.314-5.251-0.656-8.074
				c-0.224-1.853-0.929-3.454-0.5-5.213c0.296-1.212,1.748-3.444,2.335-4.74c1.481-3.273,0.278-2.05,2.845-2.196
				c2.082-0.118,3.453,0.199,5.461-0.611c1.69-0.681,4.927-4.434,5.679-4.553c0.28-0.044,2.328,1.118,2.968,1.172
				c1.85,0.157,3.28-0.299,4.762-1.363c0.945-0.678,1.102-1.571,2.156-2.224c1.174-0.727,2.451-0.518,3.581-1.681
				C462.036,206.748,462.383,204.289,461.147,202.268z"/>
			<g>
				<path style="fill:#221F5B;" d="M440.392,208.592c-1.601,2.425-4.031,4.018-6.879,4.571c-0.631,0.123-0.364,1.087,0.266,0.964
					c3.104-0.603,5.737-2.396,7.477-5.03C441.611,208.558,440.745,208.057,440.392,208.592z"/>
				<path style="fill:#221F5B;" d="M451.906,203.488c-0.645,2.551-3.024,4.251-5.641,4.073c-0.642-0.044-0.639,0.956,0,1
					c3.048,0.208,5.857-1.852,6.605-4.807C453.029,203.13,452.064,202.863,451.906,203.488z"/>
				<path style="fill:#221F5B;" d="M444.058,192.508c-0.629-0.09-0.901,0.874-0.266,0.964c3.181,0.454,5.646,3.129,5.733,6.362
					c0.017,0.642,1.017,0.645,1,0C450.427,196.193,447.684,193.025,444.058,192.508z"/>
				<path style="fill:#221F5B;" d="M439.354,196.33c-5.567-0.862-10.396,2.789-11.043,8.385c-0.074,0.638,0.927,0.633,1,0
					c0.567-4.903,4.901-8.176,9.777-7.421C439.718,197.392,439.989,196.428,439.354,196.33z"/>
				<path style="fill:#221F5B;" d="M423.393,197.653c-2.229,0.487-4.447,1.711-5.381,3.904c-0.822,1.931-0.426,4.168,1.103,5.607
					c0.468,0.441,1.177-0.265,0.707-0.707c-1.412-1.33-1.588-3.443-0.588-5.083c0.957-1.57,2.692-2.378,4.425-2.757
					C424.288,198.48,424.022,197.516,423.393,197.653z"/>
				<path style="fill:#221F5B;" d="M415.999,225.402c-4.756-2.36-7.6-11.736-1.641-14.557c0.581-0.275,0.074-1.138-0.505-0.864
					c-6.597,3.124-3.829,13.57,1.641,16.284C416.069,226.551,416.576,225.689,415.999,225.402z"/>
				<path style="fill:#221F5B;" d="M424.714,224.444c-1.892-1.28-3.331-3.028-3.723-5.339c-0.36-2.119,0.469-6.072,3.234-6.279
					c0.638-0.048,0.643-1.048,0-1c-2.751,0.206-4.268,3.437-4.352,5.921c-0.108,3.181,1.795,5.841,4.336,7.56
					C424.743,225.669,425.244,224.803,424.714,224.444z"/>
				<path style="fill:#221F5B;" d="M426.582,236.087c-2.864,0.009-5.066-2.375-4.679-5.25c0.085-0.629-0.879-0.902-0.964-0.266
					c-0.474,3.518,2.052,6.527,5.643,6.516C427.226,237.085,427.227,236.085,426.582,236.087z"/>
				<path style="fill:#221F5B;" d="M430.686,238.734c-0.741-3.48-2.835-6.365-5.711-8.399c-0.526-0.372-1.026,0.494-0.505,0.863
					c1.919,1.357,3.401,3.061,4.381,5.209c0.621,1.36,2.556,6.733-0.431,6.982c-0.637,0.053-0.642,1.054,0,1
					C431.355,244.146,431.164,240.975,430.686,238.734z"/>
			</g>
		</g>
	</g>
	<g>
		<g>
			<path style="fill:#2C4BDC;" d="M374.94,365c-0.06,0.21-0.12,0.43-0.2,0.64c-0.34,1.05-0.69,2.03-1.04,3.03
				c-0.02,0.48-0.06,1.05-0.1,1.71c-0.31,4.99-1.01,14.63-1.42,20.27c-23.13,0.14-46.26,1.75-69.23,4.82
				c-2.2,0.29-4.39,0.6-6.59,0.92c0.2-1.1,0.46-2.46,0.74-3.97c0.08-0.43,0.16-0.87,0.24-1.32c0.06-0.29,0.11-0.58,0.16-0.88
				c0.06-0.29,0.11-0.59,0.17-0.89c0.06-0.31,0.12-0.64,0.18-0.96c0.05-0.28,0.1-0.57,0.16-0.86c0.12-0.62,0.23-1.25,0.35-1.87
				c0.05-0.29,0.1-0.59,0.16-0.88c0.11-0.6,0.23-1.2,0.33-1.79c0.08-0.43,0.16-0.85,0.24-1.27c0.05-0.29,0.11-0.57,0.16-0.86
				c0.07-0.41,0.14-0.8,0.22-1.19c0.05-0.26,0.1-0.51,0.14-0.76c0.04-0.21,0.08-0.42,0.12-0.63c0.01-0.02,0.01-0.05,0.01-0.08
				c0.08-0.41,0.15-0.79,0.22-1.14c0.01-0.05,0.02-0.09,0.02-0.13c0.03-0.2,0.07-0.38,0.1-0.56c0.05-0.23,0.09-0.45,0.13-0.64
				c0.01-0.1,0.03-0.19,0.05-0.27c0.04-0.26,0.08-0.48,0.12-0.65c0.02-0.11,0.03-0.21,0.05-0.28c0.02-0.11,0.03-0.17,0.03-0.17
				c-7.71-17.33-15.67-42.26-21.57-62.24c-1.55-5.31-2.97-10.27-4.21-14.66c-2.79-9.91,2.97-20.21,12.8-22.93l60.1-16.57l2.87-0.79
				l5-1.08c1.47-0.32,2.97-0.53,4.44-0.61h0.06c8.42,0.35,15.79,6.63,17.29,15.55C384.43,314.57,381.46,344.35,374.94,365z"/>
			<path style="opacity:0.4;fill:#2C4BDC;" d="M360.731,277.098c0,0,28.188,61.967,8.194,85.873l-24.254-3.146
				C368.913,354.156,366.89,324.409,360.731,277.098z"/>
			<path style="opacity:0.4;fill:#2C4BDC;" d="M306.66,366.57l-3.71,28.9c-2.2,0.29-4.39,0.6-6.59,0.92c0.2-1.1,0.46-2.46,0.74-3.97
				c0.08-0.43,0.16-0.87,0.24-1.32c0.06-0.29,0.11-0.58,0.16-0.88c0.06-0.3,0.12-0.59,0.17-0.89c0.06-0.31,0.12-0.64,0.18-0.96
				c0.05-0.28,0.1-0.57,0.16-0.86c0.12-0.62,0.23-1.25,0.35-1.87c0.05-0.3,0.11-0.59,0.16-0.88c0.11-0.6,0.23-1.2,0.33-1.79
				c0.08-0.43,0.16-0.85,0.24-1.27c0.05-0.29,0.11-0.57,0.16-0.86c0.08-0.41,0.15-0.8,0.22-1.19c0.05-0.26,0.1-0.51,0.14-0.76
				c0.04-0.21,0.08-0.42,0.12-0.63c0.01-0.02,0.01-0.05,0.01-0.08c0.08-0.41,0.15-0.79,0.22-1.14c0.01-0.05,0.02-0.09,0.02-0.13
				c0.04-0.2,0.07-0.38,0.1-0.56c0.05-0.23,0.09-0.45,0.13-0.64c0.01-0.1,0.03-0.19,0.05-0.27c0.04-0.26,0.08-0.48,0.12-0.65
				c0.02-0.11,0.03-0.21,0.05-0.28c0.02-0.11,0.03-0.17,0.03-0.17c-7.71-17.33-15.67-42.26-21.57-62.24l0.55-14.36L306.66,366.57z"
				/>
			<path style="fill:#2C4BDC;" d="M394.297,356.901c-2.276,4.631-6.867,7.596-11.956,8.061l-7.594,0.678l-49.83,4.418l-22.189,1.124
				l22.553-13.447l49.582-13.35l0.803-0.213c-3.52-34.258-11.286-64.504-28.081-86.226l2.869-0.794l4.993-1.085
				c1.473-0.31,2.965-0.523,4.438-0.601h0.077c11.267-0.581,22.132,5.813,26.398,16.644c0.612,1.531,1.052,3.081,1.301,4.573
				C394.354,317.354,402.14,341.187,394.297,356.901z"/>
		</g>
		<path style="fill:#E38466;" d="M333.021,230.326l0.171,40.069c0.002,0.507-0.184,1.011-0.529,1.382
			c-10.981,11.839-24.865,1.64-24.865-0.756v-40.695H333.021z"/>
		<path style="fill:#DE6F47;" d="M333.021,239.335v24.278c-2.783,1.282-5.888,2.008-9.161,2.008c-6.428,0-12.181-2.767-16.062-7.136
			v-19.149c0-4.977,4.033-9.009,9.009-9.009h7.204C328.989,230.326,333.021,234.358,333.021,239.335z"/>
		<path style="fill:#E38466;" d="M288.799,233.387c1.135,5.536,5.205,7.415,9.043,8.621c0.05,0.01,0.091,0.03,0.141,0.04
			c1.698,3.728,4.14,7.395,6.984,10.48c2.964,3.677,6.843,6.441,11.314,7.646c0.13,0.03,0.271,0.071,0.402,0.101
			c0.261,0.06,0.512,0.151,0.774,0.201c0.181,0.04,0.362,0.04,0.533,0.07c0.161,0.02,0.301,0.03,0.452,0.05
			c0.352,0.04,0.703,0.07,1.055,0.08c0.341,0.01,0.693-0.01,1.045-0.03c0.151-0.01,0.302-0.02,0.452-0.03
			c0.181-0.02,0.362-0.01,0.543-0.04c0.261-0.04,0.523-0.111,0.784-0.171c0.131-0.02,0.271-0.05,0.402-0.08
			c4.522-0.985,8.521-3.557,11.666-7.084c2.994-2.944,5.607-6.501,7.486-10.139c0.13-0.03,0.271-0.07,0.402-0.111
			c3.808-1.025,7.828-2.743,9.184-8.099c1.115-4.371,0.06-10.199-3.597-10.601c-1.085-0.121-2.341,0.251-3.577,0.944
			c-1.427-7.385-5.104-15.303-9.746-20.79c-1.939-2.723-4.19-4.522-6.672-5.627c-1.337-0.693-2.693-1.166-4.06-1.316
			c-0.944-0.111-1.869-0.161-2.793-0.171c-0.915-0.04-1.849-0.03-2.794,0.03c-1.367,0.091-2.753,0.502-4.12,1.125
			c-2.532,0.985-4.873,2.673-6.934,5.296c-4.903,5.265-8.953,12.992-10.741,20.297c-1.196-0.743-2.432-1.186-3.527-1.115
			C289.231,223.198,287.894,228.965,288.799,233.387z"/>
		<g>
			<path style="fill:#221F5B;" d="M330.855,231.266c0.192,1.314-0.619,2.52-1.813,2.695c-1.193,0.175-2.317-0.748-2.509-2.062
				c-0.193-1.313,0.619-2.52,1.813-2.695C329.54,229.029,330.662,229.952,330.855,231.266z"/>
			<path style="fill:#221F5B;" d="M311.576,231.73c0.192,1.313-0.619,2.52-1.813,2.695c-1.193,0.175-2.317-0.748-2.51-2.062
				c-0.192-1.313,0.62-2.52,1.813-2.695C310.26,229.494,311.384,230.417,311.576,231.73z"/>
			<g>
				<path style="fill:#221F5B;" d="M320.111,242.802c-0.914,0.844-1.889,1.276-2.783,1.306c-0.522,0.01-1.005-0.121-1.447-0.392
					c-0.492-0.302-0.854-0.744-1.075-1.306c-0.442-1.025-0.442-2.452,0.03-4.09l1.578-8.39c0.06-0.321,0.352-0.533,0.693-0.472
					c0.322,0.06,0.533,0.372,0.472,0.694l-1.578,8.45c-0.503,1.758-0.362,2.934,0.04,3.587c0.121,0.231,0.291,0.402,0.472,0.513
					c0.683,0.422,1.678,0.171,2.592-0.613c0.04-0.03,0.08-0.06,0.121-0.101c0.241-0.221,0.643-0.231,0.874,0
					c0.02,0.02,0.04,0.04,0.05,0.07C320.322,242.289,320.322,242.591,320.111,242.802z"/>
			</g>
			<g>
				<path style="fill:#221F5B;" d="M321.592,249.023c-0.064,0-0.129-0.008-0.194-0.025c-0.408-0.107-0.653-0.524-0.546-0.933
					c1.152-4.409,4.86-4.849,6.662-4.466c0.413,0.088,0.676,0.494,0.589,0.907c-0.089,0.413-0.495,0.677-0.907,0.589
					c-1.303-0.277-4.005,0.065-4.865,3.357C322.241,248.795,321.931,249.023,321.592,249.023z"/>
			</g>
			<g>
				<path style="fill:#221F5B;" d="M304.655,229.647c-0.07,0-0.141-0.009-0.212-0.027c-0.445-0.116-0.713-0.572-0.596-1.018
					c1.257-4.81,5.302-5.29,7.268-4.872c0.45,0.096,0.738,0.539,0.643,0.989c-0.097,0.451-0.54,0.739-0.989,0.642
					c-1.422-0.302-4.369,0.07-5.307,3.662C305.363,229.398,305.025,229.647,304.655,229.647z"/>
			</g>
			<g>
				<path style="fill:#221F5B;" d="M325.529,225.687c-0.045-0.053-0.084-0.113-0.116-0.179c-0.199-0.415-0.024-0.913,0.391-1.113
					c4.481-2.152,7.464,0.624,8.416,2.394c0.218,0.405,0.066,0.911-0.339,1.13c-0.407,0.218-0.913,0.066-1.13-0.34
					c-0.689-1.28-2.879-3.287-6.226-1.68C326.176,226.066,325.768,225.969,325.529,225.687z"/>
			</g>
		</g>
		<path style="fill:#2C4BDC;" d="M284.628,275.212l-6.218,2.659c-11.333,4.295-19.435,18.09-17.274,30.016l4.102,67.912
			c1.059,5.844,7.301,9.163,12.738,6.773l53.517-23.524l-1.763-15.516l-43.021,8.816L284.628,275.212z"/>
		<path style="fill:#E38466;" d="M328.848,343.71l31.384-5.819c0,0,5.584-14.067,12.461-14.772
			c1.598,5.147,2.388,13.181,3.055,21.649l-11.108,1.94l-34.029,12.871L328.848,343.71z"/>
		<path style="fill:#221F5B;" d="M336.696,281.268c4.171-4.654,3.434-10.849,2.351-16.532c-0.118-0.618,0.83-0.883,0.948-0.261
			c1.157,6.069,1.82,12.553-2.603,17.488C336.969,282.435,336.275,281.738,336.696,281.268z"/>
		<path style="fill:#221F5B;" d="M316.8,282.913c5,2.604,10.595,2.837,15.783,0.612c0.575-0.247,1.077,0.6,0.496,0.849
			c-5.526,2.37-11.438,2.168-16.775-0.612C315.742,283.469,316.239,282.621,316.8,282.913z"/>
		<path style="fill:#221F5B;" d="M305.342,271.282c1.93,3.762,4.456,7.091,7.562,9.961c0.466,0.43-0.231,1.124-0.695,0.695
			c-3.165-2.925-5.748-6.325-7.715-10.16C304.204,271.216,305.053,270.718,305.342,271.282z"/>
		<path style="fill:#221F5B;" d="M326.069,345.431c0.449,4.783,1.049,9.544,1.801,14.289c0.098,0.619-0.849,0.886-0.948,0.261
			c-0.766-4.832-1.378-9.68-1.836-14.551C325.026,344.802,326.01,344.806,326.069,345.431z"/>
		<g>
			<path style="fill:#221F5B;" d="M349.21,210.159c-1.42-4.387-4.838-7.659-7.503-11.251c-10.194-13.742-36.003-14.545-44.77,1.095
				c-2.375,4.236-5.212,8.26-7.07,12.731c-1.63,3.923-4.678,8.684-5.347,12.789c1.789,0.435,9.152-2.752,10.051-3.688
				c0,0,1.125,8.724,3.218,15.394c1.265-4.598,0.865-9.221,3.234-13.72c2.747-5.216,7.348-9.684,10.736-14.488
				c1.663,1.65,2.524,3.676,4.392,5.295c2.366,2.051,5.013,2.765,7.554,4.25c0.318-1.618-0.559-3.655-0.423-5.446
				c0.121-1.6,0.741-3.101,0.99-4.663c1.004,3.264,5.625,4.917,8.328,6.292c3.376,1.716,6.341,4.031,7.615,7.774
				c1.383,4.063,1.552,8.353,0.602,12.507c-0.552,2.415-2.206,5.051-2.452,7.406c2.889-2.377,4.396-7.594,6.173-10.891
				c1.791-3.324,3.789-7.008,4.705-10.702C349.981,217.875,350.161,213.098,349.21,210.159z"/>
		</g>
		<path style="fill:#221F5B;" d="M375.692,344.341c-3.536,0.66-7.072,1.32-10.607,1.98c-0.104-0.086-0.244-0.125-0.418-0.057
			c-19.731,7.723-39.463,15.446-59.194,23.169c-0.346,0.135-0.396,0.518-0.263,0.769c-0.285,0.269-0.183,0.875,0.322,0.871
			c23.477-0.212,46.867-2.219,70.038-5.996c0.634-0.103,0.365-1.067-0.266-0.964c-22.726,3.704-45.662,5.677-68.684,5.94
			c19.271-7.543,38.541-15.085,57.812-22.628c0.052,0.006,0.104,0.013,0.162,0.002c3.788-0.707,7.576-1.414,11.364-2.122
			C376.589,345.188,376.322,344.224,375.692,344.341z"/>
		<path style="fill:#221F5B;" d="M304.893,253.492c-0.63-1.018-1.222-2.051-1.779-3.099c-0.002-0.075-0.016-0.153-0.058-0.233
			c-0.305-0.578-0.7-1.314-1.12-2.133c-1.067-2.27-1.973-4.611-2.719-7.029c-0.042-0.318-0.065-0.62-0.049-0.891
			c-0.03,0.515,1.202,1.749,2.369,2.551c0.173,0.118,0.363,0.088,0.51-0.015c0.348,0.163,0.806-0.091,0.698-0.559
			c-0.994-4.331-2.027-8.703-2.361-13.147c-0.007-0.254-0.024-0.508-0.029-0.763c-0.009-1.251,0.13-2.671,0.078-3.928
			c0.081-1.604,0.212-3.214,0.423-4.833c0.072-0.554-0.887-0.688-0.982-0.133c-0.126,0.737-0.224,1.471-0.305,2.205
			c-0.174,0.807-0.207,2.772-0.229,3.214c-0.07,1.399-0.07,2.801-0.033,4.203c-0.057-0.201-0.098-0.398-0.159-0.6
			c-0.032-0.107-0.088-0.18-0.151-0.238c-0.053-0.545-0.102-1.09-0.162-1.636c-0.068-0.627-0.98-0.658-1,0
			c-0.066,2.152,0.05,4.211,0.358,6.241c-0.005-0.006-0.009-0.011-0.014-0.017c-0.125-0.299-0.431-0.401-0.669-0.316
			c-0.202-0.575-0.394-1.141-0.574-1.695c-0.152-2.3-0.406-4.586-0.789-6.887c-0.098-0.587-0.944-0.395-0.982,0.133
			c-0.012,0.167-0.016,0.332-0.027,0.498c-0.066-0.092-0.155-0.157-0.26-0.187c0.016-1.056,0.071-2.12,0.23-3.2
			c0.027-0.191-0.048-0.343-0.161-0.453c0.082-0.259,0.159-0.52,0.248-0.777c0.211-0.609-0.755-0.871-0.964-0.266
			c-1.575,4.543-1.959,9.277-1.289,13.827c0.196,3.251,1.048,6.324,2.549,9.293c0.925,1.829,2.128,4.172,3.604,5.636
			c0.072,0.071,0.124,0.136,0.19,0.207c0.395,0.558,0.804,1.101,1.234,1.626c0.96,1.285,1.932,2.561,2.929,3.819
			c0.158,0.2,0.391,0.188,0.575,0.077c0.002,0.003,0.004,0.006,0.005,0.009C304.367,254.542,305.225,254.046,304.893,253.492z"/>
		<path style="fill:#221F5B;" d="M347.927,221.775c-0.061,0.869-0.106,1.755-0.147,2.653c-0.05-0.001-0.099,0.003-0.147,0.014
			c-0.127-0.517-0.983-0.484-0.975,0.116c0.009,0.62-0.005,1.233-0.014,1.848c-0.16-0.137-0.414-0.124-0.601,0.008
			c-0.022-0.325-0.039-0.649-0.066-0.974c-0.03-0.37-0.326-0.517-0.589-0.464c0.008-0.043,0.017-0.087,0.025-0.13
			c0.121-0.629-0.843-0.898-0.964-0.266c-0.491,2.556-0.981,5.113-1.472,7.67c0.052-0.422,0.114-0.841,0.159-1.265
			c0.033-0.314-0.189-0.47-0.432-0.475c0.253-1.436,0.462-2.885,0.593-4.358c0.057-0.641-0.944-0.637-1,0
			c-0.221,2.487-0.634,4.91-1.214,7.28c0,0.002-0.002,0.003-0.002,0.005l-0.004,0.021c-0.676,2.758-1.584,5.441-2.744,8.045
			c-0.82,1.654-1.667,3.295-2.534,4.931c-0.284,0.536,0.443,0.996,0.8,0.576c0.214,0.142,0.531,0.145,0.717-0.134
			c0.692-1.036,1.295-2.103,1.838-3.192c-0.979,4.889-2.072,9.753-3.425,14.563c-0.152,0.542,0.634,0.884,0.914,0.385
			c3.845-6.854,6.225-14.224,7.696-21.933c0.015-0.08,0.043-0.238,0.075-0.429c0.005,0.226,0.009,0.447,0.014,0.67
			c-0.142,1.753-0.334,3.506-0.574,5.263c-0.074,0.146-0.141,0.295-0.22,0.44c-0.14,0.256-0.055,0.478,0.111,0.609
			c0.068,0.434,0.684,0.749,0.908,0.237c0.2-0.458,0.37-0.916,0.547-1.375c0.129-0.043,0.242-0.143,0.293-0.331
			c0.03-0.112,0.053-0.223,0.082-0.335c3.249-5.812,2.905-13.222,3.355-19.675C348.971,221.133,347.971,221.136,347.927,221.775z"/>
		<path style="fill:#221F5B;" d="M326.304,221.266c-2.219-4.369-2.767-9.082-1.623-13.843c0.147-0.626-0.814-0.893-0.964-0.266
			c-0.734,3.128-1.371,6.247-1.216,9.374c-0.105,0.109-0.166,0.267-0.125,0.461c0.061,0.294,0.132,0.568,0.21,0.835
			c-0.446-0.439-0.892-0.877-1.337-1.316c-0.274-0.269-0.653-0.125-0.792,0.148c-0.021-0.017-0.044-0.032-0.066-0.049
			c-0.722-0.881-1.414-1.787-2.125-2.65c-1.719-2.089-3.439-4.178-5.158-6.267c0.11-0.25,0.052-0.605-0.277-0.738
			c-1.179-0.474-0.765-0.378-2.034-0.411c-0.416-0.011-0.573,0.424-0.432,0.752c0.147,0.34,0.312,0.649,0.467,0.974
			c-0.025,0.015-0.046,0.036-0.069,0.054c-0.044-0.074-0.095-0.139-0.138-0.214c-0.099-0.17-0.269-0.235-0.437-0.229
			c-0.003-0.019-0.009-0.038-0.011-0.057c-0.042-0.328-0.332-0.483-0.591-0.47c0.003-0.11-0.004-0.215,0.003-0.326
			c0.037-0.643-0.963-0.641-1,0c-0.011,0.186-0.003,0.365-0.005,0.548c-0.24-0.039-0.503,0.059-0.559,0.331
			c-1.29,6.249,2.622,11.089,6.613,15.408c0.011,0.012,0.023,0.015,0.034,0.025c0.171,0.223,0.337,0.44,0.496,0.65
			c0.218,0.287,0.579,0.26,0.785,0.079c0.399,0.25,1.01-0.176,0.707-0.657c-0.48-0.762-0.96-1.523-1.441-2.285
			c-0.049-0.083-0.094-0.167-0.142-0.25c0.015-0.004,0.032-0.003,0.046-0.008c1.114,1.051,2.385,1.948,3.836,2.678
			c0.258,0.13,0.546-0.003,0.686-0.211c0.115,0.051,0.226,0.108,0.343,0.156c0.467,0.191,0.843-0.518,0.487-0.836
			c-2.501-2.227-4.571-4.746-6.212-7.548c2.954,2.909,6.648,5.337,9.72,7.369c0.493,0.326,0.97-0.379,0.606-0.785
			c-0.029-0.032-0.061-0.06-0.09-0.093c0.105,0.002,0.205-0.029,0.29-0.082c0.276,0.143,0.55,0.287,0.832,0.429
			C326.072,222.178,326.534,221.72,326.304,221.266z M313.877,210.236c-0.166-0.234-0.414-0.267-0.613-0.186
			c-0.153-0.321-0.256-0.642-0.298-0.96c1.368,1.663,2.737,3.325,4.105,4.988C315.92,212.866,314.851,211.605,313.877,210.236z"/>
	</g>
	<g>
		<g>
			<g>
				<path style="fill:#DE6F47;" d="M155.865,177.958c-5.071-6.584-15.052-2.699-15.052,3.987c0-6.686-9.981-10.572-15.053-3.987
					c-5.242,6.807-0.075,18.731,15.053,25.581C155.94,196.689,161.107,184.765,155.865,177.958z"/>
			</g>
			<g>
				<path style="fill:#29A6DD;" d="M161.741,239.34h-12.433c-2.589,0-4.687-2.098-4.687-4.687v-12.433
					c0-2.589,2.098-4.687,4.687-4.687h12.433c2.588,0,4.686,2.098,4.686,4.687v12.433C166.427,237.242,164.33,239.34,161.741,239.34
					z"/>
				<path style="fill:#2C4BDC;" d="M162.511,220.933c-0.091-0.079-0.212-0.117-0.331-0.101l-9.225,1.198
					c-0.209,0.027-0.365,0.205-0.365,0.416v1.797v1.258v7.019c-0.575-0.557-1.395-0.908-2.306-0.908
					c-1.734,0-3.145,1.263-3.145,2.816c0,1.552,1.411,2.815,3.145,2.815c1.734,0,3.145-1.263,3.145-2.815v-8.558l8.387-1.089v5.036
					c-0.569-0.552-1.378-0.9-2.277-0.9c-1.718,0-3.115,1.263-3.115,2.816c0,1.553,1.398,2.816,3.115,2.816
					c1.718,0,3.115-1.263,3.115-2.816v-7.429v-1.258v-1.797C162.653,221.128,162.601,221.013,162.511,220.933z"/>
			</g>
			<g>
				<path style="fill:#FFFFFF;" d="M148.188,146.427c0-1.846,1.649-3.347,3.677-3.347c0,0,8.974,0,8.977,0
					c-0.243,0-0.855-1.652-0.946-1.889c-0.698-1.814-0.604-3.842-0.024-5.678c0.329-1.041,0.998-2.599,2.243-2.775
					c1.709-0.241,2.171,1.838,2.448,3.053c0.799,3.508,3.798,5.817,6.811,7.438c1.327,0.714,2.668,1.303,3.745,1.775
					c0.376,0.165,0.73,0.321,1.053,0.467c0.398,0.181,0.649,0.551,0.649,0.956v13.674c0,0.405-0.251,0.775-0.649,0.956
					c-4.741,2.158-8.683,2.419-13.279,2.419c-0.712,0-1.44-0.006-2.188-0.013c-0.828-0.007-1.684-0.015-2.581-0.015h-3.71
					c-2.027,0-3.677-1.502-3.677-3.347c0-0.62,0.187-1.202,0.511-1.701c-1.056-0.589-1.763-1.649-1.763-2.857
					c0-0.621,0.186-1.202,0.511-1.701c-1.056-0.589-1.763-1.649-1.763-2.857c0-0.868,0.365-1.66,0.962-2.255
					C148.545,148.105,148.188,147.291,148.188,146.427z"/>
				<path style="fill:#2C4BDC;" d="M173.414,144.148v15.953c0,0.536,0.127,1.044,0.353,1.493c0.549,1.098,1.685,1.854,2.995,1.867
					h6.837c0.59-0.014,1.068-0.491,1.068-1.082v-18.232c0-0.59-0.479-1.068-1.068-1.068h-9.116
					C173.893,143.08,173.414,143.558,173.414,144.148z"/>
			</g>
		</g>
		<g>
			<g>
				<path style="fill:#FFFFFF;" d="M612.657,190.18c0-1.772-1.583-3.213-3.53-3.213c0,0-8.615,0-8.617,0
					c0.233,0,0.821-1.586,0.908-1.814c0.67-1.741,0.58-3.689,0.023-5.451c-0.316-0.999-0.958-2.495-2.153-2.664
					c-1.64-0.231-2.084,1.765-2.349,2.931c-0.767,3.367-3.646,5.584-6.539,7.14c-1.274,0.686-2.561,1.25-3.595,1.704
					c-0.361,0.158-0.701,0.308-1.011,0.449c-0.382,0.174-0.623,0.529-0.623,0.917v13.127c0,0.389,0.241,0.743,0.623,0.917
					c4.552,2.072,8.335,2.322,12.747,2.322c0.683,0,1.382-0.006,2.101-0.012c0.795-0.007,1.616-0.014,2.478-0.014h3.561
					c1.946,0,3.53-1.441,3.53-3.213c0-0.596-0.179-1.154-0.491-1.633c1.014-0.565,1.692-1.583,1.692-2.743
					c0-0.596-0.179-1.154-0.491-1.633c1.014-0.565,1.692-1.583,1.692-2.743c0-0.833-0.35-1.594-0.924-2.165
					C612.315,191.791,612.657,191.009,612.657,190.18z"/>
				<path style="fill:#2C4BDC;" d="M587.415,186.966h-8.751c-0.566,0-1.026,0.46-1.026,1.026v17.503
					c0,0.567,0.459,1.026,1.026,1.039h6.563c1.257-0.013,2.348-0.738,2.875-1.793c0.217-0.431,0.338-0.919,0.338-1.434v-15.315
					C588.44,187.426,587.981,186.966,587.415,186.966z"/>
			</g>
			<g>
				<g>
					<path style="fill:#B4A7D5;" d="M582.894,128.56h-31.018c-5.162,0-9.346,4.184-9.346,9.346v20.344
						c0,5.162,4.185,9.346,9.346,9.346h4.451c0.212,0,0.383,0.172,0.383,0.383v10.035c0,1.187,1.451,1.762,2.264,0.897
						l10.529-11.195c0.073-0.077,0.174-0.121,0.279-0.121h13.11c5.162,0,9.346-4.184,9.346-9.346v-20.344
						C592.24,132.744,588.056,128.56,582.894,128.56z"/>
				</g>
				<g>
					<path style="fill:#FFFFFF;" d="M578.601,140.919c-3.779-4.658-11.215-1.909-11.215,2.821c0-4.73-7.437-7.479-11.216-2.821
						c-3.906,4.815-0.056,13.25,11.216,18.096C578.657,154.169,582.507,145.734,578.601,140.919z"/>
				</g>
			</g>
		</g>
		<g>
			<g>
				<path style="fill:#DE6F47;" d="M464.984,148.356c-6.452-8.376-19.148-3.434-19.148,5.073c0-8.506-12.698-13.449-19.15-5.073
					c-6.669,8.66-0.096,23.829,19.15,32.543C465.08,172.185,471.653,157.016,464.984,148.356z"/>
			</g>
			<g>
				<path style="fill:#2C4BDC;" d="M485.567,198.725h-13.902c-2.895,0-5.24-2.346-5.24-5.24v-13.902c0-2.895,2.346-5.24,5.24-5.24
					h13.902c2.894,0,5.24,2.346,5.24,5.24v13.902C490.807,196.379,488.461,198.725,485.567,198.725z"/>
				<path style="fill:#FFFFFF;" d="M486.427,178.144c-0.102-0.089-0.237-0.131-0.37-0.113l-10.316,1.339
					c-0.233,0.031-0.408,0.229-0.408,0.465v2.01v1.407v7.848c-0.643-0.623-1.559-1.015-2.579-1.015
					c-1.939,0-3.517,1.413-3.517,3.149c0,1.736,1.577,3.148,3.517,3.148c1.939,0,3.517-1.412,3.517-3.148v-9.569l9.378-1.218v5.631
					c-0.636-0.618-1.54-1.006-2.546-1.006c-1.921,0-3.483,1.413-3.483,3.149c0,1.736,1.563,3.148,3.483,3.148
					c1.921,0,3.483-1.412,3.483-3.148v-8.306v-1.407v-2.01C486.587,178.361,486.529,178.233,486.427,178.144z"/>
			</g>
			<g>
				<g>
					<path style="fill:#B4A7D5;" d="M492.19,209.306h-16.137c-2.686,0-4.862,2.177-4.862,4.862v10.584
						c0,2.685,2.177,4.862,4.862,4.862h2.316c0.11,0,0.199,0.089,0.199,0.199v5.221c0,0.617,0.755,0.917,1.178,0.467l5.478-5.825
						c0.038-0.04,0.09-0.063,0.145-0.063h6.821c2.685,0,4.862-2.177,4.862-4.862v-10.584
						C497.052,211.483,494.875,209.306,492.19,209.306z"/>
				</g>
				<path style="fill:#FFFFFF;" d="M491.534,218.359c0-0.713-0.637-1.293-1.421-1.293c0,0-3.467,0-3.468,0
					c0.094,0,0.33-0.638,0.366-0.73c0.27-0.701,0.233-1.484,0.009-2.194c-0.127-0.402-0.386-1.004-0.867-1.072
					c-0.66-0.093-0.839,0.71-0.946,1.18c-0.309,1.355-1.467,2.247-2.632,2.874c-0.267,0.144-0.534,0.273-0.789,0.391v-0.036
					c0-0.228-0.185-0.413-0.413-0.413h-3.522c-0.228,0-0.413,0.185-0.413,0.413v7.045c0,0.228,0.185,0.413,0.413,0.418h2.642
					c0.45-0.005,0.838-0.243,1.07-0.594c1.474,0.522,2.793,0.599,4.289,0.599c0.275,0,0.556-0.003,0.845-0.005
					c0.32-0.003,0.651-0.006,0.997-0.006h1.433c0.783,0,1.421-0.58,1.421-1.293c0-0.24-0.072-0.465-0.197-0.657
					c0.408-0.228,0.681-0.637,0.681-1.104c0-0.24-0.072-0.464-0.197-0.657c0.408-0.228,0.681-0.637,0.681-1.104
					c0-0.335-0.141-0.641-0.372-0.871C491.396,219.007,491.534,218.693,491.534,218.359z"/>
			</g>
		</g>
	</g>
</g>
<g id="DESIGNED_BY_FREEPIK">
	<g>
		<g>
			<g id="XMLID_1_">
				<g id="XMLID_20_">
					<path id="XMLID_28_" style="fill:#1D262D;" d="M385.104,465.465c-0.432,0.443-0.803,0.931-1.108,1.453l-0.465-0.241
						c-0.067-0.298-0.349-0.503-0.659-0.466c-0.331,0.039-0.568,0.339-0.529,0.67c0.039,0.331,0.339,0.568,0.67,0.529
						c0.066-0.008,0.127-0.026,0.184-0.052l0.452,0.234c-0.251,0.554-0.433,1.139-0.539,1.744l0.746,0.132
						c0.23-1.306,0.85-2.507,1.792-3.473L385.104,465.465z"/>
					<path id="XMLID_27_" style="fill:#1D262D;" d="M390.592,463.163c-0.171,0-0.341,0.006-0.51,0.017l-0.074-0.626
						c0.188-0.149,0.296-0.389,0.266-0.645c-0.046-0.393-0.402-0.674-0.795-0.628c-0.393,0.046-0.674,0.402-0.628,0.795
						c0.03,0.254,0.189,0.461,0.405,0.564l0.073,0.624c-0.714,0.116-1.403,0.332-2.06,0.646l0.327,0.684
						c0.934-0.447,1.942-0.673,2.995-0.673c0.496,0,0.993,0.053,1.475,0.158l0.161-0.741
						C391.692,463.222,391.142,463.163,390.592,463.163z"/>
					<path id="XMLID_26_" style="fill:#1D262D;" d="M397.194,465.711c0.331-0.04,0.566-0.341,0.525-0.672
						c-0.04-0.331-0.341-0.566-0.672-0.526c-0.309,0.038-0.535,0.304-0.53,0.609l-0.416,0.363c-0.418-0.43-0.89-0.813-1.408-1.139
						l-0.404,0.641c1.134,0.715,2.021,1.726,2.563,2.925l0.69-0.313c-0.251-0.554-0.567-1.072-0.942-1.545l0.402-0.351
						C397.065,465.716,397.129,465.719,397.194,465.711z"/>
					<path id="XMLID_25_" style="fill:#1D262D;" d="M390.044,473.372c-0.386,0.023-0.775,0.035-1.157,0.035
						c-0.88,0-1.733-0.061-2.478-0.179c-0.39-0.062-0.846-0.155-1.27-0.292c1.046,1.861,3.069,3.125,5.388,3.125
						c2.855,0,5.262-1.916,5.95-4.504c-0.682,0.449-1.505,0.825-2.459,1.123C392.839,473.047,391.463,473.286,390.044,473.372z"/>
					<path id="XMLID_21_" style="fill:#1D262D;" d="M390.592,464.68c-3.352,0-6.079,2.666-6.079,5.943
						c0,0.426,0.046,0.849,0.137,1.261c0.673,0.483,2.706,0.89,5.348,0.731c2.879-0.173,5.297-0.957,6.672-2.159
						c-0.005-0.195-0.021-0.39-0.045-0.582C396.244,466.913,393.65,464.68,390.592,464.68z M388.432,471.194
						c-1.02,0-1.85-0.83-1.85-1.85c0-1.02,0.83-1.85,1.85-1.85c1.02,0,1.85,0.83,1.85,1.85
						C390.282,470.365,389.452,471.194,388.432,471.194z M393.17,470.286c-0.75,0-1.36-0.61-1.36-1.36s0.61-1.361,1.36-1.361
						c0.75,0,1.361,0.61,1.361,1.361S393.92,470.286,393.17,470.286z"/>
				</g>
				<path id="XMLID_18_" style="fill:#1D262D;" d="M406.595,466.547c-0.295-0.116-0.806-0.309-1.382-0.237
					c-0.551,0.069-0.844,0.341-0.844,1.007v0.866h2.228v1.717h-2.228v5.455h-1.932v-5.455h-1.34v-1.717h1.34v-0.888
					c0-1.68,0.896-2.783,2.568-2.783c0.643,0,1.157,0.122,1.59,0.308L406.595,466.547z"/>
				<path id="XMLID_16_" style="fill:#1D262D;" d="M411.298,469.879c-0.177-0.03-0.358-0.046-0.526-0.046
					c-0.895,0-1.51,0.548-1.51,1.614v3.908h-1.932v-7.172h1.873v0.785c0.451-0.673,1.14-0.977,2.021-0.977
					c0.414,0,0.848,0.128,1.094,0.337L411.298,469.879z"/>
				<path id="XMLID_13_" style="fill:#1D262D;" d="M418.965,471.757c0,0.222-0.015,0.489-0.037,0.651h-5.085
					c0.207,1.036,0.933,1.488,1.843,1.488c0.622,0,1.295-0.252,1.813-0.688l1.133,1.243c-0.814,0.748-1.85,1.088-3.057,1.088
					c-2.198,0-3.723-1.495-3.723-3.753c0-2.258,1.48-3.797,3.627-3.797C417.544,467.99,418.958,469.522,418.965,471.757z
					 M413.851,471.091h3.175c-0.177-0.918-0.733-1.436-1.561-1.436C414.554,469.655,414.021,470.203,413.851,471.091z"/>
				<path id="XMLID_10_" style="fill:#1D262D;" d="M426.618,471.757c0,0.222-0.015,0.489-0.037,0.651h-5.085
					c0.207,1.036,0.932,1.488,1.843,1.488c0.622,0,1.295-0.252,1.814-0.688l1.132,1.243c-0.814,0.748-1.85,1.088-3.057,1.088
					c-2.198,0-3.723-1.495-3.723-3.753c0-2.258,1.48-3.797,3.627-3.797C425.197,467.99,426.611,469.522,426.618,471.757z
					 M421.504,471.091h3.175c-0.178-0.918-0.733-1.436-1.562-1.436C422.207,469.655,421.674,470.203,421.504,471.091z"/>
				<path id="XMLID_7_" style="fill:#1D262D;" d="M434.964,471.764c0,2.154-1.495,3.775-3.471,3.775
					c-0.962,0-1.643-0.378-2.109-0.933v3.708h-1.924v-10.133h1.887v0.792c0.466-0.585,1.155-0.984,2.139-0.984
					C433.469,467.99,434.964,469.61,434.964,471.764z M429.287,471.764c0,1.132,0.747,1.976,1.843,1.976
					c1.14,0,1.85-0.881,1.85-1.976c0-1.095-0.711-1.976-1.85-1.976C430.035,469.788,429.287,470.632,429.287,471.764z"/>
				<path id="XMLID_4_" style="fill:#1D262D;" d="M438.067,465.836c0,0.696-0.54,1.229-1.236,1.229
					c-0.696,0-1.229-0.533-1.229-1.229c0-0.696,0.533-1.243,1.229-1.243C437.527,464.592,438.067,465.14,438.067,465.836z
					 M437.809,475.354h-1.932v-7.172h1.932V475.354z"/>
				<path id="XMLID_2_" style="fill:#1D262D;" d="M441.032,470.736l2.702-2.554h2.368l-3.479,3.375l3.501,3.797h-2.376l-2.716-2.901
					v2.901H439.1v-10.658h1.932V470.736z"/>
			</g>
			<g>
				<path style="fill:#1D262D;" d="M309.412,475.289v-1.055c-0.527,0.718-1.391,1.23-2.387,1.23c-1.846,0-3.149-1.406-3.149-3.706
					c0-2.256,1.289-3.721,3.149-3.721c0.952,0,1.816,0.469,2.387,1.245v-3.765h1.099v9.77H309.412z M309.412,473.37v-3.208
					c-0.395-0.615-1.245-1.143-2.124-1.143c-1.421,0-2.27,1.172-2.27,2.739c0,1.567,0.85,2.724,2.27,2.724
					C308.168,474.483,309.017,473.986,309.412,473.37z"/>
				<path style="fill:#1D262D;" d="M311.932,471.744c0-2.051,1.465-3.706,3.486-3.706c2.139,0,3.398,1.67,3.398,3.794v0.279h-5.727
					c0.088,1.333,1.026,2.446,2.549,2.446c0.805,0,1.626-0.322,2.182-0.894l0.527,0.718c-0.703,0.703-1.655,1.084-2.812,1.084
					C313.44,475.465,311.932,473.956,311.932,471.744z M315.404,468.947c-1.509,0-2.256,1.274-2.315,2.358h4.643
					C317.718,470.25,317.015,468.947,315.404,468.947z"/>
				<path style="fill:#1D262D;" d="M319.607,474.351l0.571-0.791c0.469,0.542,1.362,1.011,2.329,1.011
					c1.084,0,1.67-0.513,1.67-1.216c0-1.714-4.38-0.659-4.38-3.281c0-1.098,0.952-2.036,2.636-2.036
					c1.201,0,2.051,0.454,2.622,1.026l-0.513,0.762c-0.425-0.513-1.201-0.894-2.109-0.894c-0.967,0-1.567,0.483-1.567,1.113
					c0,1.552,4.38,0.527,4.38,3.281c0,1.187-0.952,2.138-2.783,2.138C321.306,475.465,320.325,475.113,319.607,474.351z"/>
				<path style="fill:#1D262D;" d="M326.477,466.471c0-0.41,0.337-0.747,0.732-0.747c0.41,0,0.747,0.337,0.747,0.747
					c0,0.41-0.337,0.732-0.747,0.732C326.814,467.203,326.477,466.881,326.477,466.471z M326.667,475.289v-7.075h1.099v7.075
					H326.667z"/>
				<path style="fill:#1D262D;" d="M329.582,477.105l0.556-0.82c0.586,0.703,1.289,0.967,2.3,0.967c1.172,0,2.27-0.571,2.27-2.124
					v-1.011c-0.513,0.718-1.377,1.26-2.373,1.26c-1.845,0-3.149-1.377-3.149-3.662c0-2.27,1.289-3.677,3.149-3.677
					c0.952,0,1.802,0.469,2.373,1.245v-1.069h1.099v6.87c0,2.344-1.641,3.076-3.369,3.076
					C331.237,478.16,330.417,477.926,329.582,477.105z M334.709,473.253v-3.091c-0.381-0.615-1.23-1.143-2.109-1.143
					c-1.421,0-2.27,1.128-2.27,2.695c0,1.553,0.849,2.695,2.27,2.695C333.478,474.41,334.328,473.868,334.709,473.253z"/>
				<path style="fill:#1D262D;" d="M342.413,475.289v-4.629c0-1.245-0.63-1.641-1.582-1.641c-0.864,0-1.685,0.527-2.095,1.099v5.17
					h-1.099v-7.075h1.099v1.025c0.498-0.586,1.465-1.201,2.519-1.201c1.48,0,2.256,0.747,2.256,2.285v4.966H342.413z"/>
				<path style="fill:#1D262D;" d="M344.932,471.744c0-2.051,1.465-3.706,3.486-3.706c2.138,0,3.398,1.67,3.398,3.794v0.279h-5.727
					c0.088,1.333,1.025,2.446,2.548,2.446c0.806,0,1.626-0.322,2.183-0.894l0.527,0.718c-0.703,0.703-1.655,1.084-2.812,1.084
					C346.441,475.465,344.932,473.956,344.932,471.744z M348.404,468.947c-1.509,0-2.256,1.274-2.314,2.358h4.643
					C350.718,470.25,350.015,468.947,348.404,468.947z"/>
				<path style="fill:#1D262D;" d="M358.35,475.289v-1.055c-0.527,0.718-1.392,1.23-2.388,1.23c-1.846,0-3.149-1.406-3.149-3.706
					c0-2.256,1.289-3.721,3.149-3.721c0.952,0,1.817,0.469,2.388,1.245v-3.765h1.098v9.77H358.35z M358.35,473.37v-3.208
					c-0.396-0.615-1.245-1.143-2.124-1.143c-1.421,0-2.27,1.172-2.27,2.739c0,1.567,0.849,2.724,2.27,2.724
					C357.105,474.483,357.954,473.986,358.35,473.37z"/>
				<path style="fill:#1D262D;" d="M364.692,475.289v-9.77h1.099v3.765c0.572-0.776,1.421-1.245,2.388-1.245
					c1.845,0,3.149,1.465,3.149,3.721c0,2.299-1.304,3.706-3.149,3.706c-0.996,0-1.86-0.513-2.388-1.23v1.055H364.692z
					 M367.9,474.483c1.436,0,2.286-1.157,2.286-2.724c0-1.568-0.85-2.739-2.286-2.739c-0.864,0-1.728,0.527-2.109,1.143v3.208
					C366.171,473.986,367.036,474.483,367.9,474.483z"/>
				<path style="fill:#1D262D;" d="M372.529,477.061c0.161,0.073,0.425,0.117,0.601,0.117c0.483,0,0.805-0.161,1.055-0.747
					l0.469-1.069l-2.959-7.148h1.187l2.358,5.8l2.344-5.8h1.201l-3.545,8.51c-0.425,1.025-1.143,1.421-2.08,1.435
					c-0.234,0-0.601-0.044-0.806-0.103L372.529,477.061z"/>
			</g>
		</g>
	</g>
</g>
</svg>
